<?xml version="1.0" standalone="no"?>
<!DOCTYPE svg PUBLIC "-//W3C//DTD SVG 20010904//EN"
 "http://www.w3.org/TR/2001/REC-SVG-20010904/DTD/svg10.dtd">
<svg version="1.0" xmlns="http://www.w3.org/2000/svg"
 width="400.000000pt" height="400.000000pt" viewBox="0 0 400.000000 400.000000"
 preserveAspectRatio="xMidYMid meet">
<metadata>
Created by potrace 1.14, written by Peter Selinger 2001-2017
</metadata>
<g transform="translate(0.000000,400.000000) scale(0.100000,-0.100000)"
fill="#000000" stroke="none">
<path d="M30 3993 c-8 -3 -18 -11 -22 -17 -4 -6 -8 -903 -8 -1993 l0 -1983
2000 0 2000 0 0 2000 0 2000 -1978 -1 c-1087 0 -1984 -3 -1992 -6z m2180 -68
c0 -7 -6 -15 -12 -18 -8 -3 -13 4 -13 18 0 14 5 21 13 18 6 -3 12 -11 12 -18z
m897 -12 c-3 -10 -5 -4 -5 12 0 17 2 24 5 18 2 -7 2 -21 0 -30z m20 15 c-3 -8
-6 -5 -6 6 -1 11 2 17 5 13 3 -3 4 -12 1 -19z m-1553 -23 c7 -20 -3 -45 -19
-45 -8 0 -17 9 -20 20 -3 11 -14 21 -23 21 -14 1 16 12 49 18 4 0 9 -6 13 -14z
m2086 5 c0 -5 -4 -10 -10 -10 -5 0 -10 5 -10 10 0 6 5 10 10 10 6 0 10 -4 10
-10z m-2950 -20 c0 -5 -4 -10 -10 -10 -5 0 -10 5 -10 10 0 6 5 10 10 10 6 0
10 -4 10 -10z m260 0 c0 -5 -4 -10 -10 -10 -5 0 -10 5 -10 10 0 6 5 10 10 10
6 0 10 -4 10 -10z m465 -19 c-6 -5 -25 10 -25 20 0 5 6 4 14 -3 8 -7 12 -15
11 -17z m275 19 c0 -5 -9 -10 -20 -10 -11 0 -20 5 -20 10 0 6 9 10 20 10 11 0
20 -4 20 -10z m160 0 c0 -5 -4 -10 -10 -10 -5 0 -10 5 -10 10 0 6 5 10 10 10
6 0 10 -4 10 -10z m40 0 c0 -5 -7 -10 -15 -10 -8 0 -15 5 -15 10 0 6 7 10 15
10 8 0 15 -4 15 -10z m40 0 c0 -5 -7 -10 -15 -10 -8 0 -15 5 -15 10 0 6 7 10
15 10 8 0 15 -4 15 -10z m40 0 c0 -5 -4 -10 -10 -10 -5 0 -10 5 -10 10 0 6 5
10 10 10 6 0 10 -4 10 -10z m1560 0 c0 -5 -4 -10 -10 -10 -5 0 -10 5 -10 10 0
6 5 10 10 10 6 0 10 -4 10 -10z m-2275 -20 c-3 -5 -12 -10 -18 -10 -7 0 -6 4
3 10 19 12 23 12 15 0z m335 0 c0 -5 -4 -10 -10 -10 -5 0 -10 5 -10 10 0 6 5
10 10 10 6 0 10 -4 10 -10z m-383 -6 c-3 -3 -12 -4 -19 -1 -8 3 -5 6 6 6 11 1
17 -2 13 -5z m296 -1 c-7 -2 -19 -2 -25 0 -7 3 -2 5 12 5 14 0 19 -2 13 -5z
m124 1 c-3 -3 -12 -4 -19 -1 -8 3 -5 6 6 6 11 1 17 -2 13 -5z m1110 0 c-3 -3
-12 -4 -19 -1 -8 3 -5 6 6 6 11 1 17 -2 13 -5z m40 0 c-3 -3 -12 -4 -19 -1 -8
3 -5 6 6 6 11 1 17 -2 13 -5z m566 -1 c-7 -2 -19 -2 -25 0 -7 3 -2 5 12 5 14
0 19 -2 13 -5z m-1013 -13 c0 -14 27 -12 33 3 3 7 6 5 6 -5 1 -13 -7 -18 -25
-18 -15 0 -23 -4 -19 -11 4 -5 17 -9 28 -8 35 2 47 0 47 -11 0 -5 -7 -10 -16
-10 -11 0 -14 -6 -10 -22 3 -13 3 -17 0 -10 -8 17 -51 15 -58 -3 -3 -10 -19
-15 -43 -15 -43 0 -57 7 -66 32 -4 11 -12 15 -22 11 -13 -4 -14 -8 -4 -14 8
-4 11 -11 7 -14 -11 -12 -85 -18 -123 -11 l-37 7 6 52 c3 29 6 53 6 55 1 8
290 0 290 -8z m90 -20 c0 -5 -2 -10 -4 -10 -3 0 -8 5 -11 10 -3 6 -1 10 4 10
6 0 11 -4 11 -10z m50 2 c0 -5 -7 -9 -15 -9 -8 0 -12 4 -9 9 3 4 9 8 15 8 5 0
9 -4 9 -8z m-1324 -47 c33 -36 77 -47 87 -22 4 8 8 9 14 1 18 -23 46 -32 67
-20 12 6 25 17 29 24 4 6 15 12 22 12 8 0 15 7 15 15 0 10 8 7 26 -10 14 -13
23 -28 21 -33 -11 -16 70 -13 87 3 14 15 16 15 16 1 0 -9 4 -16 9 -16 5 0 15
-17 22 -37 7 -21 18 -42 25 -48 18 -13 5 -32 -27 -40 -17 -4 -31 -1 -41 9 -8
8 -31 18 -51 21 -29 6 -38 4 -43 -9 -3 -9 -12 -16 -19 -16 -18 0 -21 -12 -17
-64 3 -37 8 -45 28 -50 21 -6 36 -38 17 -35 -28 4 -41 -3 -36 -19 7 -27 -40
-24 -49 3 -3 11 -6 -8 -7 -42 -1 -36 3 -63 9 -63 6 0 10 5 10 10 0 6 7 10 15
10 11 0 14 -7 11 -26 -7 -34 -15 -42 -26 -24 -5 8 -12 11 -16 7 -4 -4 3 -15
14 -26 12 -10 22 -21 22 -25 0 -3 -19 -24 -41 -46 -27 -26 -42 -49 -43 -68 -1
-26 -41 -79 -48 -63 -2 5 -27 10 -56 13 -48 5 -54 3 -62 -17 -5 -12 -16 -25
-24 -28 -9 -4 -16 -18 -16 -33 0 -16 -11 -36 -26 -51 -20 -18 -24 -27 -15 -36
6 -6 11 -20 11 -30 0 -13 5 -17 15 -13 11 4 15 -1 15 -19 0 -26 9 -30 66 -26
19 1 38 -5 50 -16 16 -16 17 -17 11 -1 -5 13 0 19 18 24 13 3 26 12 29 20 3 8
12 14 21 14 9 0 15 9 15 25 0 13 6 28 13 32 6 4 20 22 29 38 14 25 23 30 52
30 20 0 36 3 36 7 0 12 54 58 67 58 7 0 13 6 14 13 1 6 2 21 3 32 0 10 12 25
25 31 13 7 28 18 32 26 8 11 10 11 18 0 6 -11 10 -9 14 7 3 15 13 21 31 21 14
0 26 5 26 10 0 15 70 12 71 -2 0 -10 2 -10 6 0 6 16 40 16 45 0 3 -8 21 -12
46 -11 23 1 42 -2 42 -8 0 -5 7 -9 15 -9 8 0 15 -4 15 -9 0 -5 11 -12 25 -15
13 -3 36 -17 51 -31 32 -30 71 -42 86 -27 6 6 17 8 24 5 10 -3 14 3 14 20 0
20 4 24 19 20 10 -3 22 0 25 6 4 6 14 11 23 11 9 0 22 8 29 18 10 14 29 17
106 17 102 1 114 -4 164 -54 l34 -34 0 26 c0 15 4 27 10 27 5 0 23 14 39 31
22 23 29 38 26 60 -3 26 -1 29 26 29 27 0 34 10 31 41 -1 4 6 6 16 5 10 0 16
6 16 16 -1 11 4 15 15 10 23 -8 31 -23 31 -59 0 -26 4 -33 20 -33 11 0 20 -4
20 -10 0 -5 -7 -10 -15 -10 -21 0 -19 -13 5 -30 12 -8 20 -26 20 -42 0 -15 4
-28 9 -28 5 0 16 -6 23 -13 17 -17 177 -38 199 -27 8 5 25 6 37 3 15 -3 24 0
28 11 3 9 14 16 25 16 32 0 69 22 69 42 0 10 5 18 10 18 6 0 10 -9 10 -20 0
-17 7 -20 48 -22 26 0 55 -1 64 0 10 1 24 -7 30 -18 8 -12 24 -20 39 -20 31 0
92 -20 100 -32 3 -5 35 -13 70 -18 71 -9 99 -18 99 -31 0 -5 6 -9 14 -9 9 0
12 -7 9 -20 -3 -11 -9 -20 -14 -20 -5 0 -9 -11 -9 -24 0 -17 9 -27 30 -36 17
-7 30 -18 30 -25 0 -7 7 -16 16 -19 19 -7 44 10 44 29 0 17 21 21 76 17 l42
-4 1 -199 c2 -188 1 -198 -16 -192 -19 7 -62 43 -96 81 -11 12 -25 22 -31 22
-6 0 -17 9 -24 20 -7 11 -17 20 -22 20 -10 0 -19 7 -67 50 -13 11 -26 20 -30
20 -5 0 -21 11 -37 25 -16 14 -44 30 -62 37 -19 7 -34 15 -34 20 0 4 -18 13
-40 19 -22 7 -40 15 -40 19 0 3 -29 13 -65 20 -36 7 -65 17 -65 22 0 4 -13 8
-30 8 -16 0 -30 -4 -30 -10 0 -5 -6 -10 -14 -10 -14 0 -35 -20 -91 -85 -41
-48 -44 -53 -57 -80 -6 -14 -15 -25 -19 -25 -5 0 -15 -13 -24 -30 -8 -16 -27
-41 -41 -55 -31 -31 -39 -24 -49 37 -4 21 -11 38 -16 38 -5 0 -11 11 -15 25
-3 14 -12 25 -20 25 -7 0 -19 8 -26 19 -7 10 -23 21 -35 25 -37 12 -26 23 20
20 44 -3 77 9 64 22 -4 4 -37 7 -74 7 -44 0 -61 2 -48 8 19 7 19 8 -2 8 -13 1
-23 6 -23 11 0 6 -4 10 -10 10 -5 0 -10 -7 -10 -15 0 -8 5 -15 12 -15 6 0 9
-3 5 -6 -3 -3 -22 -1 -41 6 -32 10 -35 15 -31 40 4 22 1 30 -15 35 -11 3 -29
3 -40 0 -11 -3 -20 -2 -20 3 0 5 -8 9 -17 9 -18 0 -33 -14 -33 -32 0 -5 4 -4
9 4 8 12 12 12 26 -2 21 -22 35 -22 35 1 0 14 2 15 10 2 6 -10 6 -16 0 -18 -6
-2 -10 -11 -9 -20 0 -10 3 -12 6 -5 3 9 11 7 26 -7 11 -11 29 -20 39 -20 10 0
18 -4 18 -9 0 -5 20 -17 45 -28 25 -10 45 -21 45 -25 0 -5 6 -8 13 -8 18 0 63
-42 71 -66 4 -12 9 -39 12 -60 2 -21 8 -41 12 -44 5 -3 14 -31 21 -62 7 -32
16 -58 20 -58 5 0 11 -12 14 -28 3 -15 15 -38 26 -51 12 -13 21 -26 21 -28 0
-8 -11 -1 -30 19 -16 17 -20 19 -20 6 0 -9 -6 -18 -12 -21 -18 -5 -48 3 -48
14 0 14 28 11 33 -3 3 -7 6 -3 6 10 1 12 6 22 11 22 6 0 10 5 10 10 0 14 -27
12 -34 -2 -3 -7 -3 2 0 20 3 24 1 32 -11 32 -8 0 -15 -4 -15 -10 0 -5 -16 -10
-35 -10 -37 0 -43 8 -23 28 9 9 9 12 -3 12 -12 0 -12 2 1 10 13 9 13 11 0 20
-8 6 -23 8 -33 6 -9 -2 -15 0 -12 4 3 5 -8 8 -25 8 -36 -1 -50 9 -30 22 13 8
12 10 -2 10 -11 0 -18 -8 -18 -20 0 -11 7 -20 15 -20 8 0 15 -5 15 -11 0 -14
25 -39 39 -39 6 0 11 -6 11 -13 0 -8 9 -24 20 -37 11 -13 20 -27 20 -32 0 -5
4 -7 9 -4 5 4 7 -2 4 -12 -2 -11 2 -26 10 -34 13 -12 24 -45 33 -97 1 -7 12
-20 23 -28 12 -8 21 -20 21 -27 0 -8 7 -16 15 -20 8 -3 15 -15 15 -26 0 -11 7
-23 15 -26 8 -4 15 -10 15 -15 0 -15 -27 -10 -33 5 -3 8 -20 17 -37 21 -17 4
-34 13 -37 21 -3 8 -13 14 -22 14 -10 0 -27 11 -39 25 -12 13 -33 27 -47 31
-14 3 -25 10 -25 15 0 5 -7 9 -15 9 -8 0 -15 -4 -15 -10 0 -5 4 -10 9 -10 5 0
14 -14 21 -31 8 -18 18 -28 26 -25 8 3 11 0 8 -9 -3 -8 4 -20 15 -27 12 -7 21
-21 21 -30 0 -10 7 -18 15 -18 8 0 15 -7 15 -15 0 -8 4 -15 9 -15 5 0 15 -15
21 -34 6 -19 16 -37 23 -40 9 -3 9 -7 -1 -14 -11 -7 -11 -10 2 -15 9 -4 16
-16 16 -27 0 -11 7 -20 15 -20 8 0 15 -7 15 -15 0 -17 18 -52 38 -73 22 -24
13 -32 -13 -10 -14 12 -25 30 -25 40 0 10 -7 18 -15 18 -8 0 -12 6 -9 14 3 9
-3 17 -15 21 -12 3 -21 15 -21 25 0 10 -5 22 -11 26 -6 3 -8 16 -5 28 4 17 0
21 -18 22 -19 1 -22 -2 -18 -22 3 -19 0 -24 -17 -24 -23 0 -30 -34 -8 -44 6
-3 -1 -3 -18 1 -39 8 -45 11 -45 27 0 8 -10 16 -21 19 -14 4 -20 11 -16 21 4
9 -1 17 -14 21 -10 4 -19 10 -19 14 0 5 -3 23 -6 40 -6 26 -4 31 12 30 11 0
14 -3 7 -6 -15 -5 -17 -23 -4 -23 18 0 21 31 3 37 -9 4 -21 11 -25 17 -6 7 -7
4 -3 -6 3 -10 2 -18 -3 -18 -4 0 -6 -13 -3 -30 3 -23 0 -30 -12 -30 -9 0 -16
7 -16 15 0 8 -9 15 -20 15 -11 0 -20 4 -20 9 0 5 -14 14 -31 20 -37 13 -63 14
-34 1 17 -7 17 -9 3 -9 -25 -1 -22 -17 5 -26 12 -3 17 -9 10 -11 -8 -4 -9 -13
-3 -29 6 -16 5 -25 -3 -29 -9 -3 -8 -7 3 -15 18 -13 43 -15 36 -3 -3 5 -1 22
4 38 5 18 9 22 9 10 1 -12 6 -16 16 -12 8 3 14 2 14 -2 -4 -22 3 -32 21 -32
11 0 20 5 20 12 0 6 3 8 6 5 4 -4 1 -13 -6 -22 -9 -11 -9 -15 -1 -15 7 0 20
-7 29 -16 15 -15 14 -16 -6 -10 -29 10 -29 -2 1 -14 17 -7 18 -9 5 -9 -21 -1
-24 -21 -4 -21 8 0 18 -4 21 -10 9 -15 -43 7 -62 25 -8 8 -34 20 -58 26 -24 6
-46 16 -48 23 -2 6 -2 1 -1 -11 5 -29 -5 -53 -22 -53 -8 0 -14 -4 -14 -10 0
-11 -39 -14 -41 -2 -1 4 -2 22 -3 39 -1 18 -6 36 -11 40 -4 5 -5 0 -2 -9 4
-12 1 -18 -8 -18 -7 0 -16 -4 -19 -9 -4 -5 2 -7 12 -4 16 4 18 -2 18 -36 -1
-23 4 -41 9 -42 6 0 0 -5 -12 -11 -13 -6 -23 -15 -23 -20 0 -12 27 -10 33 2 3
6 4 5 3 -2 -2 -7 -14 -12 -27 -11 -22 1 -24 -3 -24 -40 1 -54 -4 -67 -24 -67
-13 1 -13 3 4 17 15 11 16 14 3 10 -11 -4 -18 2 -22 19 -6 22 -8 23 -21 10
-18 -18 -19 -36 -2 -37 8 0 8 -2 -2 -6 -11 -5 -11 -7 0 -15 12 -8 12 -10 0
-15 -11 -5 -11 -7 0 -14 11 -7 10 -9 -3 -9 -11 0 -18 8 -18 20 0 21 -28 40
-57 39 -10 0 -13 -3 -5 -6 14 -6 16 -43 2 -43 -5 0 -10 -12 -11 -27 0 -16 -5
-37 -10 -48 -9 -19 -9 -18 -5 3 3 15 -1 22 -12 23 -11 0 -12 2 -5 6 15 5 18
33 4 33 -5 0 -11 11 -13 25 -4 18 -1 25 11 26 13 1 13 2 -1 6 -10 2 -18 11
-18 19 0 8 -4 14 -10 14 -5 0 -10 -7 -10 -15 0 -8 -8 -15 -17 -16 -15 0 -15
-2 2 -9 11 -5 15 -9 8 -9 -10 -1 -25 -58 -27 -105 -1 -11 -8 -21 -16 -23 -13
-4 -13 -3 0 6 10 7 11 11 3 11 -9 0 -13 17 -13 49 0 59 -7 81 -26 81 -17 0
-18 -16 -1 -24 10 -5 10 -7 0 -12 -7 -3 -14 -20 -14 -37 -2 -31 -2 -31 -6 -4
-2 15 -11 27 -18 27 -8 0 -18 8 -24 17 -8 15 -10 14 -17 -12 -4 -16 -12 -34
-18 -41 -14 -15 -43 -6 -49 16 -3 13 0 17 12 14 9 -3 6 1 -7 8 -16 8 -22 18
-18 30 3 15 0 18 -16 16 -16 -2 -22 -12 -25 -38 -2 -19 -8 -37 -14 -39 -7 -2
-6 -6 2 -12 10 -6 11 -9 2 -9 -7 0 -13 -9 -13 -21 0 -31 -17 -14 -24 25 -4 19
-11 36 -15 38 -5 2 -12 19 -15 38 -10 59 -17 94 -20 98 -8 7 -36 -12 -36 -24
0 -8 -5 -14 -10 -14 -6 0 -15 -10 -20 -22 -5 -13 -9 -17 -9 -10 -1 8 -11 23
-23 34 -17 14 -19 21 -10 25 10 4 10 8 1 19 -6 7 -9 29 -7 47 3 27 0 33 -12
30 -17 -5 -43 -60 -34 -74 3 -5 -2 -6 -10 -3 -19 7 -21 20 -3 28 10 5 10 7 0
12 -7 3 -13 12 -13 20 0 8 -4 14 -10 14 -5 0 -10 -7 -10 -16 0 -9 -6 -14 -12
-12 -19 7 -21 78 -3 78 12 0 12 4 -2 18 -23 23 -33 10 -33 -45 0 -24 -4 -43
-10 -43 -9 0 -14 14 -11 33 0 4 -4 7 -10 7 -7 0 -9 10 -5 25 5 18 2 25 -9 25
-22 0 -24 48 -2 62 18 11 5 17 -25 11 -19 -4 -28 -12 -28 -24 0 -11 -4 -19
-10 -19 -5 0 -10 -5 -10 -10 0 -6 -8 -20 -19 -31 -18 -20 -18 -19 -15 20 1 22
5 46 9 53 4 7 1 6 -7 -2 -22 -25 -69 -43 -82 -30 -8 8 -6 9 7 5 12 -5 17 -2
17 12 0 11 13 34 30 51 17 18 30 36 30 41 0 5 7 17 16 26 9 9 13 19 10 23 -4
3 -11 0 -17 -8 -8 -13 -10 -13 -20 0 -9 13 -10 12 -5 -2 3 -12 0 -18 -10 -18
-8 0 -18 -8 -21 -17 -4 -10 -16 -27 -27 -39 -12 -11 -28 -30 -36 -42 -8 -12
-22 -25 -32 -28 -10 -3 -18 -12 -18 -19 0 -8 -4 -16 -10 -20 -13 -8 11 57 27
73 7 7 13 23 13 34 0 11 8 22 20 25 10 3 22 14 25 24 4 10 10 19 14 19 4 0 13
16 20 35 7 19 17 35 22 35 5 0 9 9 9 19 0 11 7 27 16 35 8 9 14 22 11 29 -2 7
-10 0 -17 -15 -7 -16 -17 -28 -22 -28 -4 0 -8 -6 -8 -14 0 -8 -5 -18 -11 -22
-8 -5 -9 6 -4 37 l7 44 -21 -24 c-11 -13 -21 -29 -21 -34 0 -6 -3 -8 -6 -5 -3
4 0 16 6 28 9 16 9 25 1 33 -8 8 -11 6 -11 -6 0 -9 -7 -17 -15 -17 -13 0 -15
7 -9 38 4 20 12 40 18 44 6 5 1 8 -11 8 -18 0 -23 6 -23 25 0 33 -12 32 -33
-5 -10 -16 -22 -30 -27 -30 -4 0 -14 -23 -21 -50 -8 -31 -17 -49 -25 -46 -7 3
-10 -3 -7 -15 3 -10 0 -19 -6 -19 -25 0 -2 146 26 163 7 4 13 17 13 27 0 11 6
20 13 20 14 0 47 54 47 76 0 11 6 13 20 9 14 -5 20 -2 20 9 0 9 7 16 15 16 8
0 15 5 15 10 0 17 -28 11 -34 -8 -3 -10 -15 -18 -26 -18 -13 0 -19 5 -15 14 3
7 5 20 5 28 0 8 7 14 16 14 8 0 12 -5 9 -10 -4 -7 2 -9 18 -5 18 5 28 2 36
-12 9 -16 12 -16 21 -3 17 26 12 67 -9 73 -12 3 -22 -1 -25 -9 -3 -8 -19 -14
-36 -14 -16 0 -30 -4 -30 -10 0 -5 -7 -10 -16 -10 -14 0 -14 -3 -4 -15 7 -9
10 -18 6 -22 -3 -3 -6 -1 -6 5 0 13 -36 17 -42 5 -1 -5 -19 -15 -39 -25 -36
-16 -36 -16 -32 7 3 12 17 29 31 36 15 8 33 21 39 30 7 9 24 20 38 23 14 4 25
10 25 15 0 5 14 14 30 21 17 7 30 16 30 20 0 5 14 13 30 19 17 5 30 14 30 19
0 5 8 12 18 16 40 13 89 56 94 83 2 13 14 19 41 21 32 3 35 5 23 18 -21 20
-59 17 -76 -5 -7 -11 -18 -17 -24 -14 -6 4 -5 -1 3 -10 11 -14 11 -20 1 -32
-7 -8 -18 -15 -24 -14 -7 0 -6 2 2 6 14 6 16 33 2 33 -5 0 -10 -4 -10 -10 0
-5 -7 -10 -15 -10 -8 0 -15 -5 -15 -11 0 -6 -7 -8 -16 -5 -23 9 -94 -5 -94
-18 0 -6 -13 -11 -29 -12 -38 -1 -21 17 32 37 20 7 37 16 37 21 0 4 15 15 33
24 17 9 38 25 45 35 7 11 19 19 25 19 7 0 18 12 24 28 7 15 26 33 44 41 17 7
35 24 41 37 6 13 15 24 20 24 4 0 23 15 41 34 17 18 42 37 55 41 30 9 130 -4
145 -20 7 -6 29 -17 49 -24 20 -7 38 -18 41 -25 3 -7 19 -16 35 -19 16 -3 32
-13 36 -22 5 -14 1 -16 -27 -10 -17 4 -33 11 -35 16 -5 12 -22 11 -22 -1 0
-11 77 -33 90 -25 5 3 18 -3 30 -15 21 -21 25 -13 13 28 -3 13 -17 28 -30 33
-14 5 -24 16 -22 26 3 35 -1 43 -22 43 -11 0 -17 4 -14 10 3 5 0 7 -9 4 -8 -3
-23 3 -34 14 -11 11 -36 25 -56 32 -41 13 -46 27 -13 33 12 2 -9 4 -48 4 -38
0 -58 -2 -42 -4 15 -2 27 -8 27 -13 0 -5 18 -15 40 -21 22 -7 40 -16 40 -21 0
-5 11 -13 25 -18 14 -5 28 -17 31 -25 4 -8 12 -15 19 -15 15 0 40 -28 32 -36
-3 -4 -13 1 -22 10 -9 9 -28 19 -43 23 -15 3 -29 9 -32 13 -8 11 -89 40 -110
40 -11 0 -20 5 -20 10 0 6 -7 10 -15 10 -8 0 -15 -4 -15 -9 0 -5 -14 -11 -31
-15 -17 -3 -43 -19 -57 -36 -15 -16 -30 -30 -35 -30 -4 0 -50 -42 -101 -92
-96 -95 -118 -114 -148 -124 -9 -3 -19 -12 -22 -19 -2 -7 -20 -16 -38 -20 -18
-4 -36 -11 -39 -16 -3 -5 -17 -10 -32 -11 -51 -4 -22 -28 34 -28 16 0 29 -4
29 -10 0 -5 20 -10 45 -10 25 0 45 5 45 10 0 6 7 10 15 10 27 0 16 -18 -16
-25 -17 -4 -33 -13 -36 -21 -6 -16 -29 -19 -36 -4 -3 6 -4 5 -3 -2 3 -16 -23
-40 -67 -61 -20 -10 -37 -22 -37 -27 0 -20 -33 -9 -56 18 -13 15 -24 30 -24
34 0 4 -15 23 -32 41 -18 19 -40 47 -48 63 -8 16 -23 35 -32 42 -10 7 -18 18
-18 24 0 6 -11 21 -25 34 -36 34 -31 15 10 -31 19 -22 35 -45 35 -51 0 -7 7
-14 15 -18 8 -3 15 -12 15 -21 0 -8 16 -31 35 -51 19 -19 35 -39 35 -43 0 -4
13 -21 30 -37 34 -33 37 -49 13 -62 -13 -8 -17 -32 -21 -143 -2 -74 -9 -142
-14 -153 -7 -13 -7 -16 1 -12 6 4 11 2 11 -3 0 -22 -24 -101 -31 -101 -4 0
-13 -20 -20 -45 -7 -25 -17 -45 -20 -45 -4 0 -10 -14 -14 -31 -4 -17 -13 -33
-20 -35 -18 -7 -38 -64 -23 -64 18 0 78 23 78 30 0 4 18 13 41 20 22 8 44 21
49 31 13 23 41 34 33 12 -4 -9 -14 -24 -22 -34 -59 -65 -67 -93 -51 -170 7
-32 16 -59 20 -59 4 0 13 -19 20 -42 8 -24 17 -45 20 -48 14 -12 30 -64 30
-95 0 -19 5 -35 10 -35 6 0 10 -11 10 -25 0 -14 -4 -25 -10 -25 -5 0 -10 -8
-10 -17 0 -24 -23 -86 -38 -101 -6 -7 -12 -18 -12 -23 0 -5 -10 -13 -22 -18
-22 -8 -22 -8 3 -13 39 -7 140 17 151 35 12 23 28 21 28 -3 0 -11 -4 -20 -10
-20 -6 0 -10 -28 -10 -65 0 -61 11 -84 24 -50 3 8 17 20 31 25 14 5 25 14 25
20 0 5 6 10 14 10 12 0 13 -14 9 -75 -6 -76 -3 -85 22 -62 33 31 88 67 102 67
5 0 3 -4 -2 -8 -14 -10 -35 -59 -35 -82 0 -11 -4 -20 -10 -20 -6 0 -10 -27
-10 -60 0 -33 4 -60 9 -60 5 0 12 -16 15 -35 4 -19 12 -40 19 -47 7 -7 19 -26
27 -43 8 -16 20 -35 26 -42 6 -7 15 -32 18 -58 7 -45 26 -63 26 -25 0 11 -4
20 -9 20 -5 0 -11 15 -13 33 l-4 34 40 -9 c22 -5 44 -14 47 -20 7 -12 -6 -68
-18 -77 -5 -3 -14 -16 -21 -29 -12 -21 -11 -22 7 -10 10 6 25 29 32 50 14 45
29 48 55 11 10 -14 33 -41 50 -58 30 -32 31 -32 47 -12 9 12 16 33 16 47 l-2
25 -4 -24 c-7 -35 -26 -51 -44 -37 -18 14 -49 77 -43 88 3 4 -2 5 -10 2 -11
-4 -16 0 -16 15 0 22 19 30 21 9 0 -10 2 -10 6 0 6 14 63 17 63 2 0 -5 7 -10
15 -10 8 0 15 -4 15 -10 0 -5 7 -10 15 -10 8 0 19 -9 25 -20 6 -11 17 -20 26
-20 8 0 17 -7 20 -15 4 -8 15 -15 25 -15 17 0 19 8 19 94 0 71 4 98 15 110 8
8 15 20 15 27 0 8 4 7 13 -4 6 -9 23 -19 37 -22 23 -5 28 -1 45 37 20 46 24
52 69 100 l29 32 -5 -57 c-4 -54 -4 -57 19 -57 14 0 23 -6 23 -16 0 -8 6 -22
14 -29 10 -10 12 -33 8 -84 -3 -47 -1 -71 6 -71 22 0 61 20 81 41 l21 23 0
-27 c0 -15 5 -27 10 -27 6 0 10 -12 10 -26 0 -22 3 -24 22 -18 26 8 78 57 78
74 0 7 -19 -7 -42 -30 l-43 -42 -7 33 c-10 49 1 89 23 89 11 0 19 -4 19 -9 0
-5 10 -13 23 -17 28 -8 54 -36 67 -69 11 -29 47 -34 57 -7 4 9 15 23 25 30 10
7 18 20 18 28 0 8 5 14 10 14 6 0 10 6 10 13 0 6 14 25 30 40 17 16 30 33 30
38 0 6 -11 -1 -24 -15 -13 -15 -29 -26 -35 -26 -16 0 -42 26 -34 34 4 3 -4 6
-16 6 -18 0 -21 -4 -16 -20 4 -11 2 -20 -4 -20 -6 0 -11 6 -11 13 0 8 -4 7
-10 -3 -9 -13 -11 -13 -20 0 -8 13 -10 13 -10 -2 0 -13 -8 -17 -35 -16 -34 1
-48 21 -23 31 8 3 6 6 -4 6 -10 1 -18 6 -18 12 0 7 -10 9 -24 7 -17 -4 -23 -1
-19 9 3 7 0 20 -7 28 -13 16 -6 35 14 35 7 0 21 8 32 19 37 34 62 43 83 30 15
-10 26 -10 50 1 17 7 31 16 31 21 0 5 9 9 19 9 11 0 22 6 24 13 3 6 6 -7 6
-29 1 -31 6 -43 19 -46 15 -4 17 0 14 23 -2 15 1 35 7 46 8 14 10 0 11 -59 0
-43 4 -78 9 -78 14 0 22 65 19 144 -2 60 0 71 20 86 12 10 22 22 22 27 0 12
29 42 69 73 66 49 73 59 66 92 -7 28 -5 30 16 23 13 -4 26 -12 27 -16 5 -12
162 -12 162 0 0 5 -9 11 -20 14 -11 3 -23 13 -27 23 -3 10 -15 26 -25 36 -10
10 -18 32 -18 52 0 19 -6 37 -12 39 -10 4 -10 8 -1 14 6 4 17 30 23 56 7 26
16 47 20 47 4 0 13 18 20 41 8 23 20 43 27 46 7 3 13 11 13 18 0 8 13 28 29
46 25 27 28 35 19 55 -6 13 -14 24 -18 24 -4 0 -13 15 -21 33 -7 17 -16 34
-19 37 -6 5 -30 81 -30 95 0 4 12 -4 26 -19 15 -14 33 -26 40 -26 7 0 19 -6
27 -14 13 -13 87 -39 94 -33 1 2 -11 17 -26 35 -16 17 -32 45 -36 62 -4 16
-10 30 -15 30 -4 0 -10 11 -12 25 -6 27 15 35 29 11 10 -17 53 -39 61 -31 3 3
-4 8 -16 12 -12 3 -22 8 -22 12 0 4 -13 15 -30 24 -17 10 -30 27 -30 38 0 10
-12 29 -26 42 -39 32 -74 71 -74 80 0 5 7 2 15 -6 8 -9 28 -18 45 -22 16 -4
30 -11 30 -16 0 -5 9 -9 20 -9 37 0 21 16 -30 30 -27 7 -50 17 -50 21 0 4 -13
12 -30 18 -16 5 -30 14 -30 19 0 5 -11 22 -25 38 -40 46 -45 53 -45 64 0 15
28 12 37 -5 5 -8 36 -21 68 -27 33 -7 63 -17 67 -22 4 -6 10 -7 15 -2 4 4 0
12 -10 17 -9 6 -17 19 -17 29 0 11 -9 24 -20 30 -11 6 -20 16 -20 23 0 7 -11
25 -25 41 -13 15 -27 47 -31 72 -3 24 -10 44 -15 44 -5 0 -9 9 -9 20 0 11 7
20 15 20 9 0 19 8 22 17 4 9 14 24 24 34 14 14 18 15 23 3 3 -8 10 -14 16 -14
7 0 5 7 -4 15 -17 18 -11 44 16 63 10 7 18 20 18 28 0 8 5 14 10 14 6 0 15 12
20 26 7 17 16 24 25 21 8 -4 12 -1 9 7 -5 14 28 56 45 56 6 0 11 4 11 8 0 4
14 13 31 19 34 13 129 0 129 -18 0 -5 8 -9 18 -9 29 0 71 -23 76 -42 2 -10 10
-18 18 -18 10 0 9 3 -2 10 -9 6 -10 10 -3 10 17 0 83 -32 83 -41 0 -3 14 -12
30 -19 17 -7 30 -16 30 -19 0 -4 16 -15 35 -24 19 -9 35 -21 35 -27 0 -5 6
-10 13 -10 12 0 76 -55 160 -138 64 -63 67 -68 67 -105 0 -30 -4 -37 -20 -37
-11 0 -20 -4 -20 -10 0 -5 9 -10 19 -10 18 0 19 -9 20 -107 1 -58 -2 -122 -5
-141 -6 -32 -8 -34 -45 -30 -37 3 -39 2 -39 -25 0 -22 -4 -28 -16 -23 -8 3
-12 2 -9 -4 3 -6 -5 -10 -19 -10 -13 0 -26 -4 -28 -9 -1 -5 -22 -12 -45 -16
-35 -5 -43 -4 -43 8 0 8 -6 17 -12 19 -18 7 -88 -3 -88 -11 0 -12 -49 -31 -80
-31 -28 0 -40 -13 -22 -23 4 -2 1 -2 -7 0 -8 2 -18 -2 -23 -9 -8 -10 -11 -10
-15 0 -10 26 -83 3 -83 -27 0 -16 -60 -71 -77 -71 -7 0 -13 -4 -13 -10 0 -5 5
-10 10 -10 6 0 10 -5 10 -11 0 -6 -11 -8 -28 -4 -19 4 -33 1 -40 -8 -13 -15
-11 -151 2 -164 4 -4 6 16 5 45 -3 35 0 52 8 52 19 0 23 -15 16 -65 -5 -41 -8
-46 -27 -40 -12 3 -35 8 -53 12 -28 5 -33 2 -39 -21 -3 -14 -12 -26 -19 -26
-11 0 -30 -69 -20 -78 2 -2 32 -6 67 -8 35 -2 90 -6 123 -10 36 -3 72 -1 89 5
26 10 28 14 21 47 -12 69 63 108 113 58 18 -18 65 -12 88 11 9 8 29 15 45 15
24 0 29 -4 29 -25 0 -14 -6 -25 -12 -25 -9 0 -8 -4 2 -11 11 -8 12 -12 2 -16
-6 -2 -12 -14 -12 -26 -1 -28 -18 -50 -55 -70 -16 -9 -24 -16 -17 -17 7 0 12
-13 12 -29 0 -23 -7 -32 -34 -45 -30 -14 -39 -14 -91 -1 -53 14 -59 14 -76 -1
-10 -9 -24 -14 -32 -11 -17 6 -60 -38 -54 -55 3 -8 6 -6 6 5 1 24 21 22 21 -2
0 -11 5 -23 10 -26 6 -3 10 -15 10 -26 0 -11 -4 -18 -10 -14 -5 3 -6 13 -3 22
4 11 -4 8 -22 -10 -17 -15 -40 -27 -52 -27 -22 0 -82 -53 -84 -74 -1 -6 -5 8
-10 32 -12 60 -27 74 -70 59 -42 -15 -67 -36 -64 -57 1 -8 0 -9 -2 -3 -11 31
-100 29 -117 -2 -6 -11 -14 -22 -17 -25 -4 -3 -9 -16 -10 -29 -3 -18 -11 -25
-29 -25 -28 -2 -70 -33 -70 -53 0 -6 -7 -16 -15 -21 -10 -5 -17 -28 -19 -69
-2 -34 -7 -71 -11 -83 -5 -15 -2 -26 6 -31 10 -6 11 -9 2 -9 -7 0 -13 -5 -13
-11 0 -6 -7 -18 -16 -26 -8 -9 -13 -24 -11 -35 3 -10 2 -16 -2 -14 -9 6 -41
-30 -41 -47 0 -7 -11 -21 -25 -31 -14 -10 -25 -23 -25 -29 0 -5 -13 -22 -29
-38 -24 -22 -36 -27 -65 -23 -20 2 -36 0 -36 -6 0 -6 -9 -6 -22 -1 -13 5 -49
7 -80 5 -32 -2 -58 1 -58 7 0 5 -13 9 -30 9 -16 0 -30 5 -30 10 0 6 -15 10
-34 10 -29 0 -36 5 -45 30 -5 17 -8 37 -5 45 6 15 -20 22 -29 8 -2 -5 -2 -3
-1 4 4 19 -16 83 -26 83 -6 0 -10 -6 -11 -12 0 -10 -2 -10 -6 -1 -5 14 -9 11
-79 -53 -24 -23 -44 -49 -44 -58 0 -24 -20 -58 -42 -74 -10 -7 -18 -20 -18
-28 0 -8 -4 -14 -10 -14 -5 0 -10 5 -10 10 0 6 -7 10 -15 10 -8 0 -15 -4 -15
-10 0 -5 -18 -13 -41 -16 -22 -4 -46 -13 -54 -20 -15 -16 -45 -19 -45 -5 0 5
-23 11 -50 13 -39 2 -50 0 -51 -12 0 -10 -2 -11 -6 -2 -7 18 -23 15 -24 -5 0
-15 -3 -14 -16 4 -19 27 -33 30 -34 6 0 -11 -3 -13 -6 -5 -2 6 -11 12 -19 12
-18 0 -34 40 -28 71 2 13 2 18 -2 12 -10 -21 -24 -15 -24 11 0 42 -12 86 -24
86 -12 0 -46 55 -46 75 0 7 -6 16 -12 19 -10 5 -10 7 0 12 16 7 16 34 0 34 -8
0 -14 16 -15 42 -2 26 -10 48 -23 60 -11 11 -18 23 -15 29 4 5 1 9 -4 9 -6 0
-11 4 -11 10 0 5 -12 21 -26 35 -19 20 -29 23 -34 14 -6 -8 -9 -6 -13 7 -2 10
-5 -1 -6 -26 -1 -25 -5 -40 -9 -34 -9 13 -45 27 -37 15 8 -14 -5 -41 -20 -41
-7 0 -15 -7 -19 -15 -3 -8 -11 -15 -18 -15 -9 0 -9 3 2 10 17 11 14 14 -25 28
-27 9 -28 10 -6 11 18 1 22 5 18 22 -3 12 0 22 9 26 19 7 18 23 -1 23 -8 0
-15 4 -15 9 0 5 7 8 16 7 18 -1 39 46 31 68 -3 7 -24 16 -46 20 -23 3 -41 11
-41 16 0 6 -12 10 -27 10 -27 1 -27 1 -9 15 11 8 16 18 13 22 -17 16 -37 -33
-32 -74 6 -41 6 -42 -29 -48 -19 -4 -37 -13 -40 -21 -7 -18 -26 -18 -26 0 0
16 -31 28 -79 30 -19 0 -36 7 -38 14 -3 6 -11 12 -18 12 -14 0 -35 57 -35 94
0 16 7 18 66 14 51 -3 70 -9 81 -24 13 -18 15 -18 24 -2 7 13 23 18 55 18 55
0 84 14 84 40 0 11 5 20 10 20 16 0 12 66 -5 80 -8 7 -15 17 -15 23 0 6 7 1
16 -11 29 -42 41 -28 39 46 -2 84 -2 82 -21 82 -10 0 -14 6 -10 15 5 14 -22
105 -35 115 -4 3 -11 21 -17 41 -12 43 -51 91 -69 85 -17 -7 -16 -1 3 18 14
15 14 16 -6 16 -11 0 -24 8 -27 18 -4 9 -13 23 -20 30 -20 20 -16 49 8 55 18
5 20 12 17 59 l-3 53 -41 0 c-29 0 -40 4 -37 13 3 7 -3 12 -16 12 -12 0 -21 5
-21 10 0 6 -7 10 -15 10 -8 0 -15 -4 -15 -10 0 -5 -20 -15 -44 -21 -43 -11
-45 -13 -57 -62 -7 -28 -18 -57 -24 -64 -20 -20 -92 -26 -116 -10 -15 11 -17
16 -7 20 10 4 10 8 1 14 -6 4 -13 26 -15 48 l-3 40 -65 -3 c-36 -2 -68 -8 -72
-15 -4 -7 -8 -7 -8 -2 0 14 -50 36 -63 28 -6 -3 -7 -1 -3 5 4 7 2 12 -3 12 -6
0 -11 6 -11 13 0 9 -12 11 -40 9 -26 -3 -40 -9 -40 -18 0 -8 -7 -14 -15 -14
-19 0 -21 70 -2 71 9 0 9 2 0 6 -16 6 -18 193 -3 193 20 0 47 38 53 74 5 30 4
34 -8 23 -7 -8 -15 -27 -17 -43 -2 -18 -10 -30 -21 -32 -15 -3 -17 6 -17 87 0
80 3 93 23 115 13 13 35 28 49 31 15 4 34 18 43 31 8 13 24 24 35 24 11 0 20
7 20 15 0 8 8 15 18 15 11 0 32 11 48 25 15 13 41 27 56 30 15 4 28 10 28 15
0 5 9 12 21 15 11 4 18 9 16 11 -5 5 -59 -17 -67 -27 -3 -3 -26 -14 -52 -24
-27 -10 -48 -21 -48 -25 0 -3 -12 -13 -27 -21 -25 -13 -40 -25 -84 -64 -9 -8
-21 -15 -27 -15 -6 0 -18 -10 -27 -22 -12 -18 -17 -20 -24 -10 -10 17 -2 65
13 74 8 5 7 8 -1 8 -8 0 -13 15 -13 40 0 25 5 40 13 40 15 0 55 41 57 60 4 29
0 40 -15 40 -8 0 -15 7 -15 15 0 11 7 13 29 9 16 -3 37 -1 48 5 10 6 12 11 6
11 -7 0 -13 6 -13 14 0 9 8 12 25 8 14 -2 25 -8 25 -13 0 -5 7 -9 15 -9 8 0
15 4 15 9 0 5 14 14 30 21 17 7 30 18 30 25 0 6 25 17 55 24 44 10 55 16 55
32 0 11 4 18 9 14 5 -3 16 1 24 9 7 8 33 20 55 27 38 11 59 39 30 39 -6 0 -9
2 -6 5 3 3 17 1 31 -6 16 -7 39 -9 64 -4 l38 8 -27 10 c-21 8 -28 18 -28 38 0
14 -3 41 -6 58 -6 27 -3 33 15 38 11 3 21 9 21 14 0 5 11 9 25 9 14 0 25 -4
25 -10 0 -14 47 -12 54 3 5 10 7 10 12 0 7 -15 44 -17 44 -3 0 6 -9 10 -21 10
-15 0 -19 4 -15 16 3 9 6 29 6 44 0 37 44 83 74 78 16 -3 22 1 22 16 1 90 4
103 28 115 19 11 30 11 60 0 20 -7 36 -17 36 -21 0 -4 7 -8 15 -8 8 0 15 -4
15 -10 0 -5 -4 -10 -9 -10 -5 0 -13 -9 -16 -20 -3 -11 -13 -27 -22 -35 -8 -9
-12 -19 -8 -23 4 -4 10 -1 13 7 2 7 12 21 22 31 9 9 19 24 23 33 9 24 26 21
53 -9 29 -30 30 -41 7 -47 -10 -2 2 -3 27 -3 34 1 46 5 48 18 2 11 -2 17 -10
15 -7 -2 -10 -2 -5 0 4 3 7 10 7 17 0 7 12 18 26 25 22 10 25 15 19 44 -4 17
-11 34 -16 35 -5 2 -9 12 -9 22 0 25 -18 37 -67 45 -24 4 -43 10 -43 15 0 4
-13 10 -29 13 -24 5 -31 14 -42 51 -7 26 -17 46 -21 46 -4 0 -8 9 -8 19 0 12
9 21 26 25 15 4 33 14 41 21 20 20 21 20 59 -20z m111 3 c-3 -8 -6 -5 -6 6 -1
11 2 17 5 13 3 -3 4 -12 1 -19z m-857 -28 c0 -5 -4 -10 -10 -10 -5 0 -10 5
-10 10 0 6 5 10 10 10 6 0 10 -4 10 -10z m187 -12 c-3 -8 -6 -5 -6 6 -1 11 2
17 5 13 3 -3 4 -12 1 -19z m2121 -7 c9 -5 25 -12 35 -15 28 -9 20 -106 -9
-121 -35 -17 -50 -39 -57 -79 -3 -22 -10 -43 -15 -48 -5 -5 -32 -6 -61 -2 -43
5 -51 10 -52 28 0 21 -1 21 -11 -1 -11 -22 -38 -32 -38 -15 0 5 -18 15 -40 22
-37 12 -40 16 -40 52 0 23 5 38 13 39 9 0 9 2 -1 6 -17 7 24 43 49 43 13 0 20
10 24 34 8 41 40 61 87 54 18 -3 44 -2 58 3 35 10 38 10 58 0z m-899 -65 c-1
-18 -2 -18 -6 -3 -6 23 -28 16 -29 -9 -1 -10 -2 -25 -3 -31 -1 -16 -81 -18
-81 -3 0 6 -9 10 -20 10 -23 0 -26 13 -7 32 8 7 19 24 26 37 10 19 19 22 47
19 19 -2 34 0 34 6 0 5 9 -1 20 -14 11 -13 19 -32 19 -44z m-1299 -27 c-12 -8
-12 -10 5 -8 47 3 55 -1 55 -28 0 -17 3 -23 8 -16 5 8 13 9 22 3 10 -7 11 -10
3 -10 -9 0 -13 -15 -13 -43 l0 -43 -49 -3 -49 -2 -7 66 c-7 66 2 95 29 95 6 0
4 -5 -4 -11z m2917 -13 c4 -7 19 -19 32 -25 21 -12 22 -17 16 -58 -6 -40 -35
-93 -35 -64 0 6 -19 16 -42 22 -27 8 -36 14 -25 16 21 5 23 23 2 23 -8 0 -15
5 -15 11 0 6 7 9 14 6 11 -5 17 5 22 39 6 45 17 55 31 30z m-3069 -123 c21
-10 43 -23 50 -29 15 -15 16 -40 2 -49 -18 -11 -10 -40 19 -68 32 -30 59 -35
67 -12 6 16 34 21 34 7 0 -5 12 -14 26 -20 25 -12 58 -3 66 17 1 5 9 2 17 -6
11 -12 11 -14 0 -12 -24 4 -49 -13 -49 -32 0 -10 5 -19 10 -19 6 0 10 -7 10
-15 0 -16 -16 -21 -22 -7 -1 4 -11 0 -20 -10 -17 -17 -17 -18 2 -18 11 0 20
-4 20 -10 0 -18 -45 -10 -58 10 -7 11 -19 20 -27 20 -8 0 -15 5 -15 10 0 14
-27 12 -34 -2 -3 -7 -3 -2 0 11 4 15 2 21 -4 17 -6 -4 -9 4 -7 19 1 18 -3 25
-15 25 -10 0 -20 10 -23 21 -5 19 -11 21 -41 15 -19 -4 -46 -4 -60 0 -22 5
-25 12 -28 62 -7 92 10 108 80 75z m2562 5 c0 -4 8 -5 18 -2 10 4 13 2 7 -3
-6 -4 -17 -21 -25 -38 -8 -16 -23 -36 -32 -43 -10 -7 -18 -19 -18 -26 0 -19
-28 -28 -51 -16 -27 15 -24 61 5 95 14 16 23 32 20 36 -2 4 14 6 36 5 22 0 40
-4 40 -8z m-1500 -152 c0 -8 -6 -16 -14 -19 -10 -4 -12 0 -9 14 6 22 23 26 23
5z m-770 -46 c0 -5 -4 -10 -10 -10 -5 0 -10 5 -10 10 0 6 5 10 10 10 6 0 10
-4 10 -10z m2148 -80 c-7 -10 -14 -18 -15 -16 -6 6 9 36 18 36 5 0 4 -9 -3
-20z m-868 -270 c0 -5 -4 -10 -10 -10 -5 0 -10 5 -10 10 0 6 5 10 10 10 6 0
10 -4 10 -10z m-615 -230 c7 0 15 6 18 13 2 6 8 8 13 4 10 -10 -14 -27 -38
-27 -11 0 -18 7 -17 18 0 10 3 12 6 5 2 -7 11 -13 18 -13z m-1265 -165 c0 -8
-4 -15 -10 -15 -5 0 -10 7 -10 15 0 8 5 15 10 15 6 0 10 -7 10 -15z m1125 -89
c0 -10 -9 -24 -20 -30 -11 -6 -23 -15 -27 -21 -5 -6 -8 -3 -8 7 0 9 -3 18 -7
21 -5 2 -3 2 4 1 7 -2 10 3 6 13 -7 17 14 34 37 30 8 -1 15 -11 15 -21z m1668
-50 c4 -10 0 -12 -14 -9 -22 6 -26 23 -5 23 8 0 16 -6 19 -14z m114 -88 c-3
-8 -6 -5 -6 6 -1 11 2 17 5 13 3 -3 4 -12 1 -19z m-1747 -38 c0 -5 -4 -10 -10
-10 -5 0 -10 5 -10 10 0 6 5 10 10 10 6 0 10 -4 10 -10z m13 -85 c-3 -9 -8
-14 -10 -11 -3 3 -2 9 2 15 9 16 15 13 8 -4z m27 -40 c0 -8 -4 -15 -10 -15 -5
0 -10 7 -10 15 0 8 5 15 10 15 6 0 10 -7 10 -15z m40 -24 c0 -5 -7 -11 -14
-14 -10 -4 -13 -1 -9 9 6 15 23 19 23 5z m1534 -230 c-5 -6 -34 20 -34 30 0 5
8 1 18 -8 10 -10 17 -20 16 -22z m256 29 c0 -5 -4 -10 -10 -10 -5 0 -10 5 -10
10 0 6 5 10 10 10 6 0 10 -4 10 -10z m5 -30 c3 -6 -1 -7 -9 -4 -18 7 -21 14
-7 14 6 0 13 -4 16 -10z m-1795 -20 c0 -5 -4 -10 -10 -10 -5 0 -10 5 -10 10 0
6 5 10 10 10 6 0 10 -4 10 -10z m1410 -45 c0 -8 -4 -15 -10 -15 -5 0 -10 7
-10 15 0 8 5 15 10 15 6 0 10 -7 10 -15z m-103 -23 c22 -17 28 -44 25 -110 -2
-30 -4 -32 -17 -18 -18 18 -19 33 -3 38 8 3 6 7 -4 11 -11 4 -19 0 -23 -12 -3
-11 -20 -22 -38 -26 -18 -4 -26 -9 -19 -12 7 -3 18 -16 23 -30 7 -18 14 -23
29 -18 15 5 20 2 20 -12 0 -15 -2 -16 -10 -3 -7 12 -9 11 -8 -6 2 -15 7 -19
24 -16 13 2 21 9 18 17 -3 7 -1 16 5 20 6 3 12 0 12 -7 5 -58 11 -83 19 -88
13 -8 26 -197 16 -234 -9 -38 -29 -28 -31 17 -2 29 1 37 14 37 14 0 14 2 1 10
-9 6 -14 22 -12 47 1 29 0 33 -7 18 -4 -11 -6 -26 -4 -32 3 -7 1 -13 -5 -13
-6 0 -12 6 -15 13 -2 6 -8 8 -13 4 -5 -4 -2 -12 6 -17 19 -11 21 -60 3 -60
-22 0 -14 -26 12 -40 14 -7 25 -18 25 -24 -1 -16 -29 -63 -30 -50 0 7 -9 14
-20 17 -11 3 -20 11 -20 19 0 10 2 10 9 -1 5 -8 16 -11 24 -8 20 8 10 46 -11
45 -10 0 -40 3 -68 7 -48 7 -52 6 -59 -15 -6 -18 -2 -27 16 -41 13 -10 20 -21
16 -25 -4 -4 -7 -2 -7 4 0 6 -9 14 -20 17 -11 3 -20 15 -20 26 0 12 -7 19 -19
19 -11 0 -23 5 -27 11 -3 6 -24 9 -45 7 -31 -3 -39 0 -39 13 0 21 -37 31 -62
18 -10 -5 -18 -19 -18 -29 0 -13 -7 -20 -17 -19 -13 0 -14 2 -4 6 11 5 11 7 0
14 -21 12 -16 131 6 156 9 10 36 39 61 65 24 26 44 53 44 60 0 19 46 59 69 61
11 0 17 5 14 10 -3 5 4 17 15 27 11 11 22 38 26 69 5 41 12 53 34 65 36 20 82
19 109 -2z m-1131 -18 c7 -11 19 -25 25 -33 7 -7 12 -26 13 -41 1 -16 3 -28 6
-28 12 2 60 -22 60 -30 0 -4 15 -14 34 -21 22 -9 38 -24 46 -47 8 -18 19 -35
26 -38 7 -3 16 -22 20 -43 4 -20 13 -44 21 -51 12 -13 18 -47 15 -102 -1 -14
1 -19 4 -12 8 17 24 15 24 -4 0 -13 -6 -15 -27 -9 -16 3 -29 11 -31 16 -6 15
-22 10 -22 -7 0 -11 -6 -14 -20 -9 -14 4 -22 1 -27 -12 -4 -10 -11 -21 -17
-25 -7 -5 -7 -8 2 -8 6 0 12 -8 12 -17 1 -14 4 -12 16 7 8 14 13 17 10 7 -3
-10 -6 -23 -6 -28 0 -5 -11 -9 -24 -9 -14 0 -28 -4 -31 -10 -9 -15 -25 -12
-25 5 0 8 9 15 19 15 15 0 19 7 19 30 -1 17 -5 30 -10 30 -4 0 -8 -4 -8 -9 0
-5 -9 -11 -20 -14 -11 -3 -20 -12 -20 -21 0 -9 -4 -16 -10 -16 -5 0 -10 5 -10
10 0 14 -27 13 -32 -1 -6 -17 -68 -18 -68 -1 0 11 -3 11 -15 -2 -8 -8 -15 -21
-15 -28 0 -10 -3 -9 -10 2 -12 19 -13 53 -1 46 4 -3 6 6 3 19 -3 17 1 27 12
31 20 8 21 24 2 24 -15 0 -26 -21 -26 -52 0 -34 -22 -14 -36 33 -19 63 -17 87
11 114 13 14 20 25 15 25 -6 0 -10 7 -10 15 0 21 17 19 29 -3 11 -21 3 -37
-18 -37 -19 0 -33 -53 -20 -77 5 -10 14 -18 19 -18 11 0 23 37 16 49 -4 5 -3
17 0 26 5 13 9 14 15 4 4 -8 11 -10 16 -6 4 5 1 13 -7 18 -12 9 -13 11 -1 16
10 4 10 7 1 13 -10 6 -16 24 -19 53 -1 4 -9 7 -18 8 -14 0 -13 2 5 9 18 8 22
17 22 51 0 32 3 40 15 35 10 -4 15 1 15 14 0 21 -29 28 -31 8 0 -10 -2 -10 -6
0 -2 6 -13 12 -24 12 -10 0 -19 -6 -20 -12 -2 -38 -18 36 -18 86 -1 55 0 58
14 40 13 -17 14 -17 15 -1 0 9 6 17 13 18 6 0 3 5 -8 10 -14 7 -5 8 34 5 39
-2 58 -9 67 -22z m954 -56 c0 -19 -2 -20 -10 -8 -13 19 -13 30 0 30 6 0 10
-10 10 -22z m800 12 c0 -5 -9 -10 -20 -10 -11 0 -20 5 -20 10 0 6 9 10 20 10
11 0 20 -4 20 -10z m-197 -28 c-10 -10 -20 -17 -22 -16 -6 5 20 34 30 34 5 0
1 -8 -8 -18z m-2069 -57 c-7 -16 -24 -21 -24 -6 0 8 7 13 27 20 1 1 0 -6 -3
-14z m395 -119 c-5 -32 -8 -61 -5 -64 5 -5 -19 -32 -28 -32 -3 0 -6 11 -6 25
0 14 5 25 10 25 6 0 10 11 10 24 0 23 20 90 25 84 2 -2 -1 -29 -6 -62z m31
-106 c0 -5 -4 -10 -10 -10 -5 0 -10 5 -10 10 0 6 5 10 10 10 6 0 10 -4 10 -10z
m0 -40 c0 -5 -4 -10 -10 -10 -5 0 -10 5 -10 10 0 6 5 10 10 10 6 0 10 -4 10
-10z m396 -125 c3 -14 10 -25 14 -25 4 0 10 -13 13 -29 3 -16 9 -40 13 -55 6
-26 6 -26 -22 -11 -16 8 -33 15 -37 15 -8 0 -23 11 -58 43 -27 24 -25 65 4 77
42 17 66 12 73 -15z m624 -11 c0 -21 -17 -17 -23 5 -3 14 -1 18 9 14 8 -3 14
-11 14 -19z m-70 4 c0 6 7 12 15 12 8 0 15 -4 15 -10 0 -5 -7 -10 -15 -10 -8
0 -18 0 -22 -1 -4 0 -9 5 -11 13 -2 9 0 8 7 -2 7 -10 11 -11 11 -2z m-2190
-24 c0 -2 -9 -4 -21 -4 -11 0 -18 4 -14 10 5 8 35 3 35 -6z m2153 5 c58 -16
45 -64 -27 -94 -20 -8 -36 -20 -36 -25 0 -6 -7 -10 -15 -10 -17 0 -19 21 -9
94 7 51 16 55 87 35z m147 7 c0 -2 -7 -6 -15 -10 -8 -3 -15 -1 -15 4 0 6 7 10
15 10 8 0 15 -2 15 -4z m-884 -27 c9 -16 -6 -27 -46 -34 -24 -4 -30 -2 -20 4
8 5 18 7 23 4 4 -3 11 4 14 16 6 23 18 27 29 10z m1926 -12 c4 -7 8 -36 8 -64
0 -46 -3 -53 -20 -53 -11 0 -20 -4 -20 -10 0 -5 -13 -10 -30 -10 -16 0 -30 5
-30 10 0 6 -7 10 -15 10 -12 0 -15 14 -15 64 0 59 2 65 23 69 32 7 91 -3 99
-16z m-1855 1 c2 6 9 12 14 12 14 0 49 -33 49 -47 0 -6 7 -19 16 -27 8 -9 18
-31 21 -50 5 -32 3 -34 -16 -29 -11 3 -21 9 -21 13 0 4 -18 12 -40 19 -22 6
-40 16 -40 21 0 5 -9 11 -19 15 -11 3 -22 13 -25 22 -8 19 35 63 47 48 6 -7
10 -6 14 3z m823 3 c0 -5 12 -13 26 -18 l25 -8 -19 -23 c-11 -13 -26 -32 -34
-44 -9 -13 -25 -21 -46 -22 -18 0 -32 -6 -32 -13 0 -7 -7 -13 -15 -13 -8 0
-15 9 -15 20 0 11 4 20 9 20 5 0 12 20 15 45 5 29 12 45 22 45 8 0 14 5 14 10
0 6 11 10 25 10 14 0 25 -4 25 -9z m80 -1 c0 -5 -4 -10 -10 -10 -5 0 -10 5
-10 10 0 6 5 10 10 10 6 0 10 -4 10 -10z m720 -5 c0 -8 -4 -15 -10 -15 -5 0
-10 7 -10 15 0 8 5 15 10 15 6 0 10 -7 10 -15z m-640 -36 c0 -5 -4 -9 -10 -9
-5 0 -10 -7 -10 -15 0 -16 -44 -63 -78 -83 -21 -12 -22 -10 -22 26 0 57 19 91
55 94 38 4 65 -2 65 -13z m617 1 c3 -10 2 -11 -4 -4 -4 7 -19 14 -33 17 -22 4
-21 5 4 4 17 -1 31 -9 33 -17z m368 -11 c4 -11 4 -23 1 -26 -3 -4 -6 1 -6 10
0 10 -4 17 -10 17 -5 0 -10 5 -10 10 0 18 19 10 25 -11z m-2055 -29 c13 0 13
1 0 10 -20 13 -6 12 24 -1 13 -6 26 -21 29 -33 9 -42 7 -96 -2 -96 -15 0 -61
22 -61 30 0 4 -13 20 -30 36 -16 16 -30 34 -30 41 0 17 33 34 45 22 5 -5 16
-9 25 -9z m1983 -10 c3 -11 1 -18 -4 -14 -5 3 -9 12 -9 20 0 20 7 17 13 -6z
m-3473 -5 c0 -8 -4 -15 -10 -15 -5 0 -10 7 -10 15 0 8 5 15 10 15 6 0 10 -7
10 -15z m55 -30 c0 -10 -6 -19 -13 -21 -7 -1 -8 0 -2 3 5 2 10 11 10 18 0 7
-5 16 -10 18 -6 3 -5 4 2 3 7 -2 13 -11 13 -21z m611 -6 c-3 -17 -6 -38 -6
-46 0 -8 -4 -12 -9 -8 -5 3 -16 -1 -24 -9 -12 -12 -16 -12 -30 5 -19 22 -22
39 -7 39 6 0 10 7 10 15 0 8 5 15 10 15 6 0 10 -4 10 -10 0 -5 7 -10 15 -10 8
0 15 9 15 20 0 11 5 20 11 20 8 0 9 -11 5 -31z m2884 27 c0 -2 -9 -6 -20 -9
-11 -3 -18 -1 -14 4 5 9 34 13 34 5z m-2126 -32 c3 -8 2 -12 -4 -9 -6 3 -10
10 -10 16 0 14 7 11 14 -7z m1647 -6 c11 -11 19 -35 19 -53 0 -28 4 -33 40
-45 22 -7 42 -21 45 -32 4 -10 11 -18 16 -18 14 0 11 -30 -3 -31 -10 0 -10 -2
0 -6 6 -2 12 -13 12 -23 0 -14 -10 -21 -35 -26 -19 -3 -35 -10 -35 -15 0 -5
-7 -9 -15 -9 -8 0 -15 4 -15 10 0 5 -11 12 -25 16 -14 3 -30 14 -35 23 -6 9
-10 11 -10 4 0 -9 -19 -13 -59 -13 l-59 0 -7 40 c-4 22 -11 40 -16 40 -21 0
-8 38 16 44 14 4 25 13 25 21 0 8 4 15 9 15 5 0 14 14 20 30 8 24 16 30 40 30
17 0 31 5 31 10 0 17 22 11 41 -12z m659 12 c0 -5 9 -10 19 -10 40 0 51 -11
51 -51 0 -44 -18 -68 -69 -88 -31 -13 -34 -13 -56 11 -13 14 -29 28 -34 29 -6
3 -8 19 -4 42 4 27 13 42 29 49 13 6 24 15 24 20 0 4 9 8 20 8 11 0 20 -4 20
-10z m-2356 -43 c-1 -9 1 -15 5 -15 17 5 81 -28 77 -39 -3 -7 -2 -12 2 -12 22
4 41 -3 62 -21 27 -23 60 -26 60 -6 0 20 12 26 39 19 13 -3 20 -11 17 -19 -3
-8 1 -14 10 -14 16 0 84 -61 84 -76 0 -5 -5 -2 -10 6 -7 11 -10 12 -10 2 0 -7
-15 -28 -34 -46 -27 -25 -42 -31 -73 -30 -60 2 -87 -17 -43 -31 11 -3 20 -13
20 -21 0 -20 -86 -19 -106 1 -9 8 -31 15 -50 15 -21 0 -34 5 -34 13 0 7 -9 23
-20 35 -31 33 -42 100 -29 187 7 48 16 74 23 72 6 -2 10 -11 10 -20z m-706
-52 c-3 -3 -9 2 -12 12 -6 14 -5 15 5 6 7 -7 10 -15 7 -18z m-608 -15 c0 -20
-5 -30 -15 -30 -18 0 -20 26 -2 45 17 19 17 19 17 -15z m-43 -22 c-3 -8 -6 -5
-6 6 -1 11 2 17 5 13 3 -3 4 -12 1 -19z m53 -38 c0 -5 -4 -10 -10 -10 -5 0
-10 5 -10 10 0 6 5 10 10 10 6 0 10 -4 10 -10z m-65 -20 c3 -6 -1 -7 -9 -4
-18 7 -21 14 -7 14 6 0 13 -4 16 -10z m1799 -76 c7 -18 0 -34 -15 -34 -5 0 -9
11 -9 25 0 28 15 34 24 9z m1936 6 c0 -5 7 -10 16 -10 24 0 41 -23 48 -66 9
-54 -4 -69 -59 -69 -34 0 -49 5 -56 18 -6 9 -18 17 -27 18 -10 0 -12 3 -4 6
14 6 16 33 2 33 -20 0 -10 27 15 40 14 7 25 19 25 27 0 7 9 13 20 13 11 0 20
-4 20 -10z m-2160 -50 c0 -5 -4 -10 -10 -10 -5 0 -10 5 -10 10 0 6 5 10 10 10
6 0 10 -4 10 -10z m700 0 c0 -5 -13 -10 -30 -10 -16 0 -30 5 -30 10 0 6 14 10
30 10 17 0 30 -4 30 -10z m-112 -16 c12 -4 22 -11 22 -16 0 -13 -68 -78 -81
-78 -10 0 -13 83 -2 93 8 9 31 9 61 1z m-388 -34 c22 -22 29 -110 9 -110 -18
0 -79 63 -79 82 0 9 9 20 20 23 11 3 20 11 20 16 0 14 8 11 30 -11z m530 10
c0 -5 -4 -10 -10 -10 -5 0 -10 5 -10 10 0 6 5 10 10 10 6 0 10 -4 10 -10z
m150 4 c0 -11 -22 -46 -41 -65 -10 -10 -19 -23 -19 -29 0 -5 -6 -10 -14 -10
-9 0 -18 16 -23 43 -8 36 -6 42 9 45 10 2 18 8 18 13 0 5 16 9 35 9 19 0 35
-3 35 -6z m-2410 -229 c0 -17 -2 -18 -24 -9 -23 9 -20 24 4 24 11 0 20 -7 20
-15z m3011 -70 c10 -4 34 1 53 10 35 17 96 13 96 -6 0 -5 11 -9 25 -9 14 0 25
-4 25 -8 0 -9 25 -44 52 -73 23 -24 37 -91 32 -149 -2 -25 -4 -57 -4 -72 -1
-27 -2 -28 -60 -28 -41 0 -60 4 -61 13 0 9 -2 9 -6 0 -3 -10 -40 -13 -134 -13
l-129 0 0 25 c0 43 33 65 95 65 l54 0 -2 50 c-1 33 3 54 11 59 10 6 4 10 -17
14 -17 4 -31 12 -31 19 0 9 -19 13 -67 13 -64 0 -67 1 -74 27 -9 34 -1 68 15
68 7 0 22 12 35 26 l22 26 26 -26 c14 -14 33 -28 44 -31z m306 33 c7 17 23 15
23 -3 0 -9 7 -18 15 -21 9 -4 15 -19 15 -40 0 -24 -5 -34 -15 -34 -8 0 -15 -8
-16 -17 0 -11 -5 -7 -11 10 -7 21 -7 32 1 40 6 6 11 19 11 30 0 14 -5 17 -20
12 -26 -8 -41 1 -33 21 5 13 8 13 15 2 7 -10 11 -10 15 0z m-1787 -22 c0 -2
-7 -7 -16 -10 -8 -3 -12 -2 -9 4 6 10 25 14 25 6z m1748 -54 c18 -3 22 -8 18
-25 -3 -12 -3 -16 0 -9 3 6 10 12 15 12 14 0 11 -20 -6 -36 -13 -14 -15 -14
-15 0 0 8 -9 20 -20 26 -11 6 -20 17 -20 25 0 8 -8 19 -17 24 -16 9 -16 12 -3
21 12 7 16 4 20 -13 4 -13 15 -23 28 -25z m-1788 28 c0 -5 -4 -10 -10 -10 -5
0 -10 5 -10 10 0 6 5 10 10 10 6 0 10 -4 10 -10z m-310 -240 c-8 -5 -19 -10
-25 -10 -5 0 -3 5 5 10 8 5 20 10 25 10 6 0 3 -5 -5 -10z m-76 -16 c11 -10 16
-11 16 -3 0 7 2 10 5 8 2 -3 2 -15 -2 -27 -4 -16 -13 -22 -35 -22 -23 0 -29 4
-24 15 4 11 -1 15 -19 15 -34 0 -32 18 3 23 15 2 30 5 34 6 4 0 14 -6 22 -15z
m396 -4 c0 -5 8 -10 18 -10 21 0 42 -18 42 -37 0 -9 -18 -13 -65 -13 -37 0
-65 4 -65 10 0 6 5 10 10 10 6 0 10 5 10 10 0 15 23 39 38 40 6 0 12 -4 12
-10z m-220 -20 c0 -5 -4 -10 -10 -10 -5 0 -10 5 -10 10 0 6 5 10 10 10 6 0 10
-4 10 -10z"/>
<path d="M1550 3890 c0 -5 5 -10 10 -10 6 0 10 5 10 10 0 6 -4 10 -10 10 -5 0
-10 -4 -10 -10z"/>
<path d="M2198 3833 c7 -3 16 -2 19 1 4 3 -2 6 -13 5 -11 0 -14 -3 -6 -6z"/>
<path d="M2250 3760 c0 -5 5 -10 10 -10 6 0 10 5 10 10 0 6 -4 10 -10 10 -5 0
-10 -4 -10 -10z"/>
<path d="M1140 3365 c0 -8 2 -15 4 -15 2 0 6 7 10 15 3 8 1 15 -4 15 -6 0 -10
-7 -10 -15z"/>
<path d="M1033 3360 c2 -8 12 -16 23 -17 13 -2 15 -1 4 4 -8 3 -19 11 -23 17
-6 7 -7 6 -4 -4z"/>
<path d="M973 3295 c0 -27 2 -38 4 -22 2 15 2 37 0 50 -2 12 -4 0 -4 -28z"/>
<path d="M1111 3324 c0 -11 3 -14 6 -6 3 7 2 16 -1 19 -3 4 -6 -2 -5 -13z"/>
<path d="M1825 3160 c-29 -7 -28 -8 11 -9 27 -1 44 -6 48 -16 3 -8 11 -15 18
-15 8 0 21 -8 29 -17 9 -10 27 -27 41 -39 14 -12 31 -30 39 -42 21 -30 67 -39
76 -16 13 38 102 115 138 121 19 3 35 10 35 14 0 5 20 9 44 9 58 0 65 -20 18
-56 -19 -16 -54 -48 -76 -71 -23 -24 -49 -43 -58 -43 -10 0 -18 -7 -18 -15 0
-12 7 -14 28 -9 15 4 29 10 32 15 8 11 89 31 100 24 5 -3 7 0 4 8 -8 21 111
38 149 22 11 -4 23 -3 30 4 6 6 27 11 46 11 27 0 32 -3 21 -10 -12 -8 -10 -10
9 -10 17 0 22 -4 17 -16 -3 -9 -2 -12 5 -9 5 4 26 -9 45 -29 19 -20 40 -36 47
-36 7 0 18 -9 25 -20 7 -11 18 -20 26 -20 8 0 16 -7 20 -15 3 -8 12 -15 20
-15 10 0 13 6 10 15 -4 8 -12 15 -18 15 -7 0 -34 20 -59 45 -26 25 -51 45 -57
45 -5 0 -11 9 -15 19 -3 11 -15 23 -26 26 -10 4 -24 16 -30 27 -11 20 -17 20
-107 15 -53 -4 -98 -11 -101 -15 -8 -12 -91 -32 -91 -21 0 12 53 59 67 59 7 0
13 5 13 11 0 5 14 15 30 20 17 6 30 15 30 19 0 5 8 11 18 14 9 3 -44 4 -118 2
-117 -2 -139 -5 -159 -22 -43 -36 -81 -74 -81 -81 0 -4 -10 -17 -22 -28 -21
-20 -23 -20 -40 -3 -10 10 -18 22 -18 26 0 11 -66 72 -78 72 -5 0 -16 9 -23
20 -17 23 -53 31 -94 20z m575 -20 c0 -5 -9 -10 -20 -10 -11 0 -20 5 -20 10 0
6 9 10 20 10 11 0 20 -4 20 -10z m107 -106 c-3 -3 -12 -4 -19 -1 -8 3 -5 6 6
6 11 1 17 -2 13 -5z"/>
<path d="M779 3109 c-11 -11 -19 -23 -16 -25 2 -2 33 -6 68 -9 101 -9 104 -9
111 -25 5 -10 7 -6 5 10 -2 22 -7 25 -45 26 -25 0 -47 6 -55 16 -21 26 -46 29
-68 7z m49 -15 c14 -15 14 -16 -3 -13 -10 2 -20 10 -23 17 -5 17 6 15 26 -4z"/>
<path d="M3109 3073 c-12 -16 -12 -17 1 -7 8 6 22 14 30 17 13 5 12 6 -1 6 -9
1 -23 -7 -30 -16z"/>
<path d="M2230 3050 c0 -5 5 -10 10 -10 6 0 10 5 10 10 0 6 -4 10 -10 10 -5 0
-10 -4 -10 -10z"/>
<path d="M3058 3038 c-19 -19 -24 -38 -10 -38 7 0 35 52 29 55 -1 1 -10 -7
-19 -17z"/>
<path d="M2400 3010 c0 -5 7 -10 15 -10 8 0 15 5 15 10 0 6 -7 10 -15 10 -8 0
-15 -4 -15 -10z"/>
<path d="M1040 2970 c0 -5 5 -10 10 -10 6 0 10 5 10 10 0 6 -4 10 -10 10 -5 0
-10 -4 -10 -10z"/>
<path d="M1760 2971 c0 -13 27 -21 45 -15 8 4 15 10 15 15 0 13 -17 11 -24 -3
-5 -10 -7 -10 -12 0 -7 14 -24 16 -24 3z"/>
<path d="M2470 2940 c0 -3 -29 -5 -64 -5 -48 1 -63 -2 -59 -12 6 -15 33 -18
33 -3 0 6 18 10 40 10 25 0 40 -5 40 -12 0 -9 4 -8 11 2 8 11 12 12 16 3 7
-18 20 -16 25 5 4 12 -1 17 -19 17 -12 0 -23 -2 -23 -5z"/>
<path d="M2987 2913 c-9 -20 -15 -39 -13 -41 2 -2 10 11 17 27 8 17 17 31 21
31 5 0 8 5 8 10 0 22 -17 8 -33 -27z"/>
<path d="M1846 2915 c-4 -10 1 -15 14 -15 13 0 18 5 14 15 -4 8 -10 15 -14 15
-4 0 -10 -7 -14 -15z"/>
<path d="M2310 2920 c0 -5 5 -10 10 -10 6 0 10 5 10 10 0 6 -4 10 -10 10 -5 0
-10 -4 -10 -10z"/>
<path d="M2660 2920 c0 -5 5 -10 10 -10 6 0 10 5 10 10 0 6 -4 10 -10 10 -5 0
-10 -4 -10 -10z"/>
<path d="M1553 2893 c-22 -3 -31 -9 -30 -21 1 -14 8 -17 34 -14 19 3 33 10 33
17 0 8 15 15 38 18 l37 4 -40 0 c-22 0 -54 -2 -72 -4z"/>
<path d="M440 2880 c0 -5 5 -10 10 -10 6 0 10 5 10 10 0 6 -4 10 -10 10 -5 0
-10 -4 -10 -10z"/>
<path d="M1800 2880 c0 -5 5 -10 10 -10 6 0 10 5 10 10 0 6 -4 10 -10 10 -5 0
-10 -4 -10 -10z"/>
<path d="M3640 2881 c0 -5 7 -11 14 -14 10 -4 13 -1 9 9 -6 15 -23 19 -23 5z"/>
<path d="M648 2858 c-21 -6 -38 -14 -38 -19 0 -13 28 -11 32 2 2 5 35 14 73
18 62 7 65 8 20 9 -27 0 -67 -5 -87 -10z"/>
<path d="M3680 2841 c0 -5 7 -11 14 -14 10 -4 13 -1 9 9 -6 15 -23 19 -23 5z"/>
<path d="M345 2815 c-17 -9 -37 -25 -44 -38 -14 -21 -13 -21 5 -7 30 24 38 30
59 45 26 19 18 18 -20 0z"/>
<path d="M575 2820 c-16 -7 -17 -9 -3 -9 9 -1 20 4 23 9 7 11 7 11 -20 0z"/>
<path d="M2620 2820 c8 -5 20 -10 25 -10 6 0 3 5 -5 10 -8 5 -19 10 -25 10 -5
0 -3 -5 5 -10z"/>
<path d="M515 2799 c-4 -6 -4 -13 -1 -16 3 -4 6 -1 6 5 0 6 8 13 18 15 15 4
15 5 0 6 -9 0 -20 -4 -23 -10z"/>
<path d="M565 2770 c-3 -6 1 -7 9 -4 18 7 21 14 7 14 -6 0 -13 -4 -16 -10z"/>
<path d="M243 2733 c-12 -13 -19 -23 -14 -23 10 0 46 39 40 43 -2 2 -14 -7
-26 -20z"/>
<path d="M1420 2750 c0 -5 5 -10 10 -10 6 0 10 5 10 10 0 6 -4 10 -10 10 -5 0
-10 -4 -10 -10z"/>
<path d="M2530 2750 c0 -5 5 -10 10 -10 6 0 10 5 10 10 0 6 -4 10 -10 10 -5 0
-10 -4 -10 -10z"/>
<path d="M1508 2733 c7 -3 16 -2 19 1 4 3 -2 6 -13 5 -11 0 -14 -3 -6 -6z"/>
<path d="M516 2705 c-13 -14 -28 -25 -34 -25 -6 0 -15 -6 -19 -13 -4 -7 -24
-18 -43 -25 l-35 -11 35 5 c19 3 40 11 45 18 6 7 18 15 29 19 16 6 17 4 12
-20 -5 -21 -4 -24 4 -13 5 8 10 23 10 33 0 9 4 17 9 17 5 0 11 9 14 20 7 26 1
25 -27 -5z"/>
<path d="M796 2717 c-11 -7 -27 -19 -36 -27 -10 -8 -30 -24 -44 -35 -15 -11
-33 -26 -41 -32 -7 -7 -18 -13 -24 -13 -6 0 -11 -4 -11 -10 0 -12 31 -1 51 19
25 24 59 51 64 51 3 0 5 -7 5 -15 0 -8 -4 -15 -8 -15 -14 0 -33 -76 -31 -118
2 -21 -1 -43 -5 -50 -4 -7 -2 -12 4 -12 7 0 14 9 17 19 3 11 12 22 22 24 11 3
9 5 -6 6 -19 1 -23 7 -23 35 0 19 6 41 14 48 7 8 17 28 20 45 8 33 41 77 66
86 13 5 13 5 0 6 -8 0 -24 -6 -34 -12z"/>
<path d="M1405 2720 c3 -5 1 -10 -6 -10 -15 0 -38 -30 -39 -51 0 -9 -9 -19
-21 -22 -22 -6 -22 -29 -1 -33 7 -1 8 0 2 3 -15 7 -12 23 5 23 8 0 15 -4 15
-10 0 -5 5 -10 10 -10 6 0 10 6 8 14 -2 8 12 28 30 45 29 28 31 34 18 46 -17
17 -30 20 -21 5z"/>
<path d="M2548 2723 c12 -2 30 -2 40 0 9 3 -1 5 -23 4 -22 0 -30 -2 -17 -4z"/>
<path d="M2570 2701 c0 -5 7 -11 15 -15 9 -3 15 0 15 9 0 8 -7 15 -15 15 -8 0
-15 -4 -15 -9z"/>
<path d="M2700 2700 c0 -5 7 -10 15 -10 8 0 15 5 15 10 0 6 -7 10 -15 10 -8 0
-15 -4 -15 -10z"/>
<path d="M2230 2671 c0 -18 27 -37 38 -26 3 3 0 5 -6 5 -7 0 -12 9 -12 20 0
11 -4 20 -10 20 -5 0 -10 -9 -10 -19z"/>
<path d="M2310 2680 c0 -5 5 -10 10 -10 6 0 10 5 10 10 0 6 -4 10 -10 10 -5 0
-10 -4 -10 -10z"/>
<path d="M3224 2664 c9 -8 16 -25 16 -37 0 -33 11 -67 21 -67 5 0 9 7 9 15 0
8 -4 15 -10 15 -5 0 -10 12 -10 26 0 30 -16 64 -31 64 -6 0 -3 -7 5 -16z"/>
<path d="M2294 2657 c4 -13 0 -20 -14 -24 -11 -3 -20 -9 -20 -13 0 -5 -17 -11
-38 -15 -23 -4 -49 -17 -66 -36 -15 -16 -34 -29 -42 -29 -8 0 -14 -4 -14 -10
0 -5 6 -10 13 -10 9 0 9 -2 0 -8 -17 -11 -33 -58 -33 -98 0 -19 -4 -34 -10
-34 -5 0 -10 -13 -10 -30 0 -16 4 -30 8 -30 4 0 12 -31 18 -69 8 -45 19 -76
33 -92 12 -13 29 -32 38 -41 9 -10 24 -18 34 -18 9 0 19 -6 22 -12 2 -9 32
-13 99 -13 77 0 98 3 112 18 10 9 24 17 31 17 8 0 20 10 26 23 7 12 15 24 18
27 13 11 31 62 31 90 0 15 6 31 13 33 10 4 10 6 0 6 -8 1 -13 16 -13 42 0 42
-19 131 -30 139 -3 3 -12 20 -19 37 -20 49 -44 72 -95 89 -48 17 -53 22 -36
42 7 9 7 9 -2 2 -14 -12 -51 -14 -44 -2 2 4 0 14 -6 22 -8 12 -9 11 -4 -3z
m101 -81 c7 -9 16 -16 22 -16 20 0 53 -42 64 -83 6 -23 16 -45 23 -49 14 -9
15 -216 1 -226 -6 -4 -16 -19 -24 -34 -8 -16 -20 -28 -28 -28 -7 0 -13 -5 -13
-10 0 -6 -20 -15 -45 -22 -25 -7 -45 -16 -45 -20 0 -4 -18 -8 -40 -8 -22 0
-40 4 -40 9 0 5 -19 11 -42 15 -46 8 -94 51 -105 96 -3 14 -11 28 -17 32 -15
10 -15 226 0 236 6 4 14 17 18 28 8 27 54 75 86 91 37 19 170 11 185 -11z"/>
<path d="M2213 2547 c-12 -6 -30 -27 -40 -47 -10 -19 -20 -37 -23 -40 -4 -3
-10 -32 -16 -66 -9 -60 0 -124 17 -124 5 0 9 -9 9 -20 0 -11 14 -35 31 -53 30
-31 34 -32 112 -32 73 0 85 3 110 24 15 14 27 32 27 42 0 10 5 19 12 21 23 8
10 66 -22 98 l-31 30 21 23 c29 30 21 78 -21 119 -29 29 -38 33 -98 35 -36 1
-76 -4 -88 -10z m87 -107 c0 -5 6 -10 14 -10 24 0 25 -48 2 -75 -22 -26 -50
-32 -75 -16 -18 11 -19 73 -2 79 7 2 17 10 24 18 14 16 37 18 37 4z"/>
<path d="M291 2618 c-1 -19 9 -21 58 -12 37 8 41 24 6 24 -14 0 -25 -4 -25
-10 0 -14 -27 -12 -33 3 -3 7 -6 5 -6 -5z"/>
<path d="M1723 2597 c-23 -7 -50 -22 -61 -34 -11 -13 -24 -23 -31 -23 -6 0
-11 -7 -11 -15 0 -7 -6 -18 -13 -22 -8 -4 -20 -30 -27 -58 -7 -27 -18 -53 -23
-56 -14 -10 -13 -182 1 -187 7 -2 12 -10 12 -17 0 -28 23 -63 49 -76 14 -8 31
-19 36 -25 6 -7 24 -14 40 -18 30 -5 30 -5 5 7 -31 15 -43 24 -84 64 -28 26
-34 42 -40 90 -7 68 9 226 24 231 5 2 10 10 10 18 0 7 9 19 20 26 11 7 20 18
20 25 0 7 10 18 22 24 13 7 28 18 35 25 35 35 196 23 208 -16 3 -10 14 -28 25
-40 25 -28 34 -105 28 -240 l-4 -109 -37 -33 c-57 -52 -61 -55 -100 -69 -56
-20 -36 -23 23 -4 53 18 104 61 116 99 4 11 12 24 17 28 14 8 13 258 -1 267
-5 3 -13 22 -17 41 -19 89 -121 130 -242 97z"/>
<path d="M590 2590 c-14 -4 -44 -8 -67 -9 -44 -1 -61 -20 -20 -23 41 -2 82 4
85 13 2 5 12 9 23 9 10 0 19 5 19 10 0 11 -5 11 -40 0z"/>
<path d="M900 2573 c-8 -10 -16 -29 -18 -43 -2 -21 0 -19 13 10 9 19 21 38 28
42 7 4 7 8 2 8 -6 0 -17 -8 -25 -17z"/>
<path d="M3060 2568 c0 -10 4 -18 9 -18 5 0 31 -22 58 -50 26 -27 53 -50 60
-50 6 0 13 -4 15 -9 5 -14 42 -21 58 -11 8 5 11 12 7 17 -5 4 -12 1 -17 -7 -6
-8 -10 -10 -10 -5 0 6 -14 16 -31 24 -17 7 -41 24 -54 37 -13 13 -29 24 -35
24 -5 0 -10 7 -10 15 0 8 -7 15 -15 15 -7 0 -19 8 -24 18 -10 16 -10 16 -11 0z"/>
<path d="M2498 2553 c7 -3 16 -2 19 1 4 3 -2 6 -13 5 -11 0 -14 -3 -6 -6z"/>
<path d="M506 2541 c-4 -7 -5 -15 -2 -18 9 -9 19 4 14 18 -4 11 -6 11 -12 0z"/>
<path d="M1746 2543 c-47 -13 -114 -85 -127 -137 -6 -25 -15 -46 -20 -46 -5 0
-9 -20 -9 -45 0 -25 5 -45 10 -45 6 0 10 -12 10 -26 0 -31 65 -104 93 -104 9
0 17 -4 17 -10 0 -5 23 -10 50 -10 28 0 50 4 50 9 0 5 14 14 31 20 17 6 33 20
36 31 3 11 9 20 13 20 5 0 14 25 21 56 12 54 12 58 -10 75 l-22 18 21 21 c11
11 20 31 20 45 0 26 -19 75 -29 75 -4 0 -19 12 -34 26 -28 26 -82 38 -121 27z
m80 -147 c17 -18 18 -55 0 -78 -14 -19 -46 -24 -46 -8 0 6 -6 10 -14 10 -21 0
-29 33 -15 64 14 29 51 35 75 12z"/>
<path d="M3250 2530 c0 -11 5 -20 10 -20 6 0 10 9 10 20 0 11 -4 20 -10 20 -5
0 -10 -9 -10 -20z"/>
<path d="M3418 2543 c7 -3 16 -2 19 1 4 3 -2 6 -13 5 -11 0 -14 -3 -6 -6z"/>
<path d="M820 2530 c0 -5 -10 -10 -22 -10 -12 0 -19 -3 -15 -6 9 -9 57 5 57
16 0 6 -4 10 -10 10 -5 0 -10 -4 -10 -10z"/>
<path d="M1411 2524 c0 -11 3 -14 6 -6 3 7 2 16 -1 19 -3 4 -6 -2 -5 -13z"/>
<path d="M2590 2531 c0 -6 4 -13 10 -16 6 -3 7 1 4 9 -7 18 -14 21 -14 7z"/>
<path d="M860 2460 c0 -26 5 -40 13 -40 9 0 11 12 9 40 -2 22 -8 40 -13 40 -5
0 -9 -18 -9 -40z"/>
<path d="M3250 2480 c0 -11 5 -20 10 -20 6 0 10 9 10 20 0 11 -4 20 -10 20 -5
0 -10 -9 -10 -20z"/>
<path d="M1010 2482 c0 -6 -8 -13 -17 -15 -16 -4 -16 -5 -1 -6 18 -1 34 16 24
26 -3 4 -6 1 -6 -5z"/>
<path d="M936 2445 c-8 -8 -19 -15 -25 -15 -6 0 -11 -5 -11 -10 0 -7 8 -6 22
1 29 15 52 39 39 39 -5 0 -16 -7 -25 -15z"/>
<path d="M3297 2444 c6 -15 23 -19 23 -5 0 5 -7 11 -14 14 -10 4 -13 1 -9 -9z"/>
<path d="M2578 2373 c7 -3 16 -2 19 1 4 3 -2 6 -13 5 -11 0 -14 -3 -6 -6z"/>
<path d="M3080 2370 c0 -5 7 -10 16 -10 8 0 12 5 9 10 -3 6 -10 10 -16 10 -5
0 -9 -4 -9 -10z"/>
<path d="M3847 2354 c6 -15 23 -19 23 -5 0 5 -7 11 -14 14 -10 4 -13 1 -9 -9z"/>
<path d="M427 2331 c3 -17 -3 -31 -19 -44 l-23 -18 23 11 c13 6 26 18 29 26 3
8 18 14 33 14 16 0 31 3 34 8 2 4 -13 6 -34 4 -26 -3 -40 0 -43 10 -2 7 -2 2
0 -11z"/>
<path d="M520 2350 c0 -5 7 -10 15 -10 8 0 15 5 15 10 0 6 -7 10 -15 10 -8 0
-15 -4 -15 -10z"/>
<path d="M1355 2340 c-3 -11 -11 -20 -16 -20 -5 0 -9 -6 -9 -14 0 -17 26 -29
28 -13 0 7 3 24 6 40 7 31 0 37 -9 7z"/>
<path d="M3040 2351 c0 -5 7 -11 14 -14 10 -4 13 -1 9 9 -6 15 -23 19 -23 5z"/>
<path d="M2670 2321 c13 -10 13 -12 0 -22 -13 -9 -13 -10 0 -6 8 2 15 10 15
17 0 7 -7 15 -15 17 -13 4 -13 3 0 -6z"/>
<path d="M3413 2316 c1 -11 9 -21 17 -23 10 -3 11 -2 4 4 -6 4 -14 15 -17 23
-5 11 -6 9 -4 -4z"/>
<path d="M680 2307 c0 -10 8 -17 18 -17 9 0 13 4 7 8 -5 4 -13 11 -17 16 -5 5
-8 2 -8 -7z"/>
<path d="M3585 2290 c3 -4 14 -10 25 -13 11 -3 18 -2 15 3 -3 4 -14 10 -25 13
-11 3 -18 2 -15 -3z"/>
<path d="M873 2283 c-15 -6 -17 -43 -3 -43 6 0 10 7 10 15 0 7 8 19 18 24 13
8 14 10 2 10 -8 0 -21 -3 -27 -6z"/>
<path d="M2628 2282 c-21 -4 -24 -32 -4 -32 8 0 17 7 20 16 8 20 6 21 -16 16z"/>
<path d="M640 2260 c-6 -11 -17 -20 -25 -20 -9 0 -12 -6 -9 -15 8 -21 21 -19
29 5 3 11 13 27 21 35 9 8 11 15 5 15 -6 0 -15 -9 -21 -20z"/>
<path d="M3442 2260 c0 -14 2 -19 5 -12 2 6 2 18 0 25 -3 6 -5 1 -5 -13z"/>
<path d="M2650 2260 c0 -5 7 -10 15 -10 8 0 15 5 15 10 0 6 -7 10 -15 10 -8 0
-15 -4 -15 -10z"/>
<path d="M824 2236 c-10 -8 -17 -16 -14 -19 3 -2 14 4 24 14 23 22 18 25 -10
5z"/>
<path d="M2640 2229 c-11 -8 -12 -12 -3 -15 8 -4 9 -13 3 -30 -5 -13 -6 -24
-1 -24 5 0 12 15 15 34 4 19 12 37 19 39 8 4 7 6 -3 6 -8 0 -22 -4 -30 -10z"/>
<path d="M3376 2225 c4 -8 12 -15 19 -15 7 0 21 -3 30 -7 16 -5 15 -4 -1 15
-21 25 -57 30 -48 7z"/>
<path d="M362 2214 c-7 -8 -8 -14 -3 -14 10 0 25 19 20 25 -2 1 -10 -3 -17
-11z"/>
<path d="M846 2215 c-9 -26 -7 -32 5 -12 6 10 9 21 6 23 -2 3 -7 -2 -11 -11z"/>
<path d="M3770 2220 c0 -5 7 -10 15 -10 8 0 15 5 15 10 0 6 -7 10 -15 10 -8 0
-15 -4 -15 -10z"/>
<path d="M775 2200 c-3 -6 1 -7 9 -4 18 7 21 14 7 14 -6 0 -13 -4 -16 -10z"/>
<path d="M593 2180 c-3 -11 -9 -20 -14 -20 -5 0 -9 -4 -9 -10 0 -21 19 -8 29
20 5 17 8 30 5 30 -3 0 -8 -9 -11 -20z"/>
<path d="M975 2189 c-4 -6 -5 -12 -2 -15 2 -3 7 2 10 11 7 17 1 20 -8 4z"/>
<path d="M520 2180 c0 -5 5 -10 10 -10 6 0 10 5 10 10 0 6 -4 10 -10 10 -5 0
-10 -4 -10 -10z"/>
<path d="M2660 2180 c0 -5 5 -10 10 -10 6 0 10 5 10 10 0 6 -4 10 -10 10 -5 0
-10 -4 -10 -10z"/>
<path d="M3470 2182 c0 -6 88 -42 104 -42 21 0 -9 19 -39 24 -19 4 -35 11 -35
16 0 6 -7 10 -15 10 -8 0 -15 -3 -15 -8z"/>
<path d="M490 2160 c-9 -6 -10 -10 -3 -10 6 0 15 5 18 10 8 12 4 12 -15 0z"/>
<path d="M1330 2160 c0 -5 5 -10 10 -10 6 0 10 5 10 10 0 6 -4 10 -10 10 -5 0
-10 -4 -10 -10z"/>
<path d="M3118 2163 c6 -2 18 -2 25 0 6 3 1 5 -13 5 -14 0 -19 -2 -12 -5z"/>
<path d="M3170 2157 c8 -7 20 -21 26 -32 6 -10 17 -20 25 -22 8 -3 7 0 -3 7
-10 6 -18 15 -18 20 0 13 27 13 33 0 3 -6 4 -5 3 1 -1 7 -20 18 -42 26 -30 10
-36 10 -24 0z"/>
<path d="M178 2153 c7 -3 16 -2 19 1 4 3 -2 6 -13 5 -11 0 -14 -3 -6 -6z"/>
<path d="M1444 2139 c-3 -6 -2 -15 3 -20 5 -5 9 -1 9 11 0 23 -2 24 -12 9z"/>
<path d="M2594 2139 c-3 -6 -1 -16 5 -22 9 -9 11 -8 6 5 -4 11 0 18 12 21 15
4 16 5 1 6 -9 0 -20 -4 -24 -10z"/>
<path d="M3590 2132 c0 -8 87 -32 116 -32 8 0 14 9 13 23 -1 17 -2 18 -6 4 -4
-15 -11 -17 -36 -11 -18 3 -33 10 -35 15 -5 11 -52 12 -52 1z"/>
<path d="M385 2110 c-13 -6 -15 -9 -5 -9 8 0 22 4 30 9 18 12 2 12 -25 0z"/>
<path d="M3268 2108 c12 -6 22 -15 22 -20 0 -4 7 -8 15 -8 23 0 18 16 -10 28
-33 15 -58 14 -27 0z"/>
<path d="M310 2095 c0 -8 9 -15 20 -15 24 0 27 15 4 24 -22 9 -24 8 -24 -9z"/>
<path d="M570 2090 c0 -5 5 -10 10 -10 6 0 10 5 10 10 0 6 -4 10 -10 10 -5 0
-10 -4 -10 -10z"/>
<path d="M3350 2070 c14 -4 36 -8 50 -8 22 0 22 1 -5 8 -16 4 -39 8 -50 8 -16
0 -15 -2 5 -8z"/>
<path d="M3460 2071 c0 -7 -4 -9 -10 -6 -5 3 -10 1 -10 -4 0 -6 12 -11 28 -11
15 0 23 4 17 8 -5 4 -13 11 -17 16 -5 5 -8 4 -8 -3z"/>
<path d="M3580 2070 c-8 -5 -10 -10 -5 -10 6 0 17 5 25 10 8 5 11 10 5 10 -5
0 -17 -5 -25 -10z"/>
<path d="M1370 2040 c0 -5 7 -10 15 -10 8 0 15 5 15 10 0 6 -7 10 -15 10 -8 0
-15 -4 -15 -10z"/>
<path d="M2480 2040 c0 -5 7 -10 15 -10 8 0 15 5 15 10 0 6 -7 10 -15 10 -8 0
-15 -4 -15 -10z"/>
<path d="M2740 2013 c8 -3 18 -11 22 -17 5 -7 8 -4 8 7 0 11 -7 17 -22 16 -16
0 -18 -2 -8 -6z"/>
<path d="M3190 2000 c0 -5 9 -10 20 -10 11 0 20 5 20 10 0 6 -9 10 -20 10 -11
0 -20 -4 -20 -10z"/>
<path d="M3246 1995 c-3 -9 0 -15 9 -15 8 0 15 7 15 15 0 8 -4 15 -9 15 -5 0
-11 -7 -15 -15z"/>
<path d="M1470 1980 c-9 -6 -10 -10 -3 -10 6 0 15 5 18 10 8 12 4 12 -15 0z"/>
<path d="M2740 1960 c0 -5 5 -10 10 -10 6 0 10 5 10 10 0 6 -4 10 -10 10 -5 0
-10 -4 -10 -10z"/>
<path d="M860 1910 c0 -5 5 -10 10 -10 6 0 10 5 10 10 0 6 -4 10 -10 10 -5 0
-10 -4 -10 -10z"/>
<path d="M2350 1867 c0 -10 8 -17 18 -17 9 0 13 4 7 8 -5 4 -13 11 -17 16 -5
5 -8 2 -8 -7z"/>
<path d="M3120 1390 c0 -16 -4 -30 -10 -30 -5 0 -10 -16 -10 -35 0 -32 2 -35
31 -35 24 0 30 3 25 16 -3 9 -6 38 -6 65 0 37 -4 49 -15 49 -10 0 -15 -10 -15
-30z"/>
<path d="M3088 1403 c-10 -2 -15 -10 -11 -19 7 -20 20 -17 26 6 3 11 4 19 4
19 -1 -1 -10 -3 -19 -6z"/>
<path d="M2559 922 c12 -9 13 -15 3 -37 -15 -32 -15 -35 -2 -35 6 0 10 7 10
15 0 8 6 15 13 15 7 0 13 9 13 20 0 11 -3 20 -7 20 -4 0 -16 3 -26 6 -14 5
-15 4 -4 -4z"/>
<path d="M2530 830 c0 -13 11 -13 30 0 12 8 11 10 -7 10 -13 0 -23 -4 -23 -10z"/>
<path d="M2642 3690 c0 -19 2 -27 5 -17 2 9 2 25 0 35 -3 9 -5 1 -5 -18z"/>
<path d="M2542 3636 c7 -8 15 -12 17 -11 5 6 -10 25 -20 25 -5 0 -4 -6 3 -14z"/>
<path d="M2636 3611 c-3 -5 1 -11 9 -14 9 -4 12 -1 8 9 -6 16 -10 17 -17 5z"/>
<path d="M2593 3580 c-3 -11 -9 -20 -14 -20 -5 0 -9 -7 -9 -15 0 -28 17 -15
27 20 6 19 9 35 6 35 -3 0 -7 -9 -10 -20z"/>
<path d="M1760 3710 c0 -5 5 -10 10 -10 6 0 10 5 10 10 0 6 -4 10 -10 10 -5 0
-10 -4 -10 -10z"/>
<path d="M1160 2480 c0 -5 7 -10 15 -10 8 0 15 5 15 10 0 6 -7 10 -15 10 -8 0
-15 -4 -15 -10z"/>
<path d="M2591 1594 c0 -11 3 -14 6 -6 3 7 2 16 -1 19 -3 4 -6 -2 -5 -13z"/>
<path d="M1364 1765 c-9 -35 0 -52 30 -57 14 -3 23 -1 20 3 -3 5 -13 9 -22 9
-15 0 -15 2 -2 10 13 9 13 11 0 20 -10 6 -11 10 -2 10 6 0 12 7 12 15 0 25
-29 17 -36 -10z"/>
<path d="M1550 1340 c0 -5 5 -10 10 -10 6 0 10 5 10 10 0 6 -4 10 -10 10 -5 0
-10 -4 -10 -10z"/>
<path d="M1620 1211 c0 -10 19 -25 25 -20 1 2 -3 10 -11 17 -8 7 -14 8 -14 3z"/>
<path d="M1420 971 c0 -5 6 -12 13 -14 9 -4 8 -8 -3 -16 -13 -9 -13 -11 2 -11
13 0 17 7 16 25 -2 23 -28 37 -28 16z"/>
<path d="M1490 880 c0 -6 7 -10 15 -10 8 0 15 2 15 4 0 2 -7 6 -15 10 -8 3
-15 1 -15 -4z"/>
<path d="M1500 840 c0 -5 5 -10 10 -10 6 0 10 -7 10 -15 0 -8 5 -15 10 -15 13
0 13 6 0 31 -11 20 -30 26 -30 9z"/>
<path d="M1550 810 c0 -5 5 -10 10 -10 6 0 10 5 10 10 0 6 -4 10 -10 10 -5 0
-10 -4 -10 -10z"/>
<path d="M3850 770 c0 -5 5 -10 10 -10 6 0 10 5 10 10 0 6 -4 10 -10 10 -5 0
-10 -4 -10 -10z"/>
<path d="M3265 437 c-16 -19 -36 -69 -30 -75 3 -3 5 0 5 6 0 6 6 17 14 24 12
13 32 59 24 58 -2 -1 -8 -6 -13 -13z"/>
</g>
</svg>
